<svg xmlns="http://www.w3.org/2000/svg" viewBox="0 0 171.82 235.47"><title>pers7</title><g id="Слой_2" data-name="Слой 2"><g id="_лой_1" data-name="—лой 1"><path d="M134.83,5.23c32.19,12.69,44.53,44.68,6.7,59.53A90.7,90.7,0,0,1,120,70.21C99.85,75,117.12,90.5,109.9,104.81a85.19,85.19,0,0,1-7.48,12.86q-7.12,11.45-.78,24.93,8.06,13.17,19.48,8.41,7.86-4.93,14.26-19A40,40,0,0,0,138,114.08c-.17-10.76,8.1-33.27,21.58-33.35q3.91.34,3.51,4.44a4.52,4.52,0,0,1-3.27,3q-6.82,2.31-4.75,5.14,2.64,1.5,6.16-1.4c2.23-2.67,3.49-8.69,8.49-5.84q3.82,2.07.62,6.7a15,15,0,0,1-10.05,7.25q-14.51,5.27-16.52,15.66-4.73,30.37-17.49,38-10.52,4.74-6.55,13.4c49.86,90.64-42,68.65-15.9,55.4q-9.3-4.52-17.61,0c12.33,11.42-7.54,18.92-25.56,6.54q-15.92-11.48-13.25-26.18a30.45,30.45,0,0,1,6.47-14.26q5.74-7.68-.7-8.65-3.92-.8-9.35,10.05-8.68,27.59-16.6,30.31Q4.92,233.74,2,225.51c-.17-2.1-.07-2.46,1.71-4.21-6.25,0-4.85-7.84,5.77-7.64,20.91,2.15,25.88-11,34.13-28.68q16.93-27.59,34.13-37.25Q86,144.17,87.8,134.81a42.05,42.05,0,0,1,8.73-22.29c11.43-14.65,14.38-35.27-7.17-41q-28.38-8-35.45-24C35.34,8.17,101-9.68,134.83,5.23Z" style="fill:#201600;fill-rule:evenodd"/><path d="M57.37,19.42q10.38-12.69,34-17.16,27.16-3.16,42.78,4,19.29,7.95,27,21.66,5.49,10.92.23,20.65-7.8,12.39-28,18-9.14,2.41-13.13,2.53-10.73,2.2-11.18,9.93-.67,3.71,1.13,9.74,2.1,10.34-1.17,16L103.19,115q-9.68,13.61-2.53,27.58,8.12,14.06,19.95,9.23,6.24-3.15,11.57-12.39,6.53-10.81,6.62-20a24.88,24.88,0,0,0-.12-5.06q-.31-11.44,8.88-25.64,6.09-7.45,12.12-7.32,3.32.65,2.73,4a4,4,0,0,1-2.61,1.95q-8.09,3.1-5.26,6.47,4.4,2.22,7.68-2.07c1.52-1.85,2.69-6.37,5.57-5.38q4.25,1.15,3,4.17a24.29,24.29,0,0,1-3.58,5.3q-4.17,3.09-7.09,3.47-11.39,4.5-14.65,10.48a13.82,13.82,0,0,0-2.46,7.32q-4.09,20-7.64,25.09-5.09,8.68-8.69,10.36-11,5-8.57,12.39a23,23,0,0,0,2.42,5.26q11.85,22.5,13,36.16,2,16.58-6.86,23.34-11.48,7.43-23.57,1.95-5.15-3.65-1.6-6.35,8.22-6,21.58-3.94,1.21-.44.35-1.17-10.77-1.09-18.54,1.91-9.45-5.36-20,.12-9.39-4.52-16.25-1-1.41.82.16.82,7.29-3.85,16.71,1.29,4.68,3.62,3.27,7.56-3.33,4.73-12,3.62-17.63-2.49-27-18.82-4.19-8.16.08-19.4a30.1,30.1,0,0,1,4.36-6.88q5.06-7.26,1.64-9-3.63-2.62-6.19.08a23.39,23.39,0,0,0-6.31,9.23q-6.34,18.61-9.78,23-4.54,6.68-7.19,7.13Q11,229.13,5.94,227.68q-4.62-1.28-2.82-4.52,1.93-2.75,10.52-4.44.7-.57-.62-.66-5.85.92-8.26,2.65c-6.91,0-3.46-6.62,4.68-6.39q13,1.17,18.23-3.51a25.67,25.67,0,0,0,8-8.77A113.24,113.24,0,0,0,42.35,189q4.57-9.35,17.88-25.56a61.23,61.23,0,0,1,18.43-15.16Q87,144.53,88.48,135a40.28,40.28,0,0,1,7.27-20q7.9-9.94,9.47-18.35A21.18,21.18,0,0,0,104,81.25q-3-7.24-11.69-9.7Q76.08,66.8,70.15,62.66q-13.9-8.14-17.45-22.13Q49.87,28.31,57.37,19.42Z" style="fill:#3b6648;fill-rule:evenodd"/><path d="M57.37,19.42q10.38-12.69,34-17.16a125.22,125.22,0,0,1,20.51-.85A57.64,57.64,0,0,1,130.95,6q19.29,7.95,27,21.66,5.49,10.92.23,20.65-7.8,12.39-28,18Q121,68.74,117,68.86q-10.73,2.2-11.18,9.93-.67,3.71,1.13,9.74,2.1,10.34-1.17,16L100,114.75q-9.68,13.61-2.53,27.58,6.35,11,15,10.44a14,14,0,0,0,8.21-1q6.24-3.15,11.57-12.39a53.74,53.74,0,0,0,4.42-9q-2.33,8.49-4.47,11.56-5.08,8.68-8.69,10.36-11,5-8.57,12.39a23,23,0,0,0,2.41,5.26q11.85,22.5,13,36.16,2,16.58-6.86,23.34a24.5,24.5,0,0,1-13.28,4.27,25.86,25.86,0,0,1-7.08-2.11q-5.15-3.65-1.6-6.35,6.46-4.71,16.09-4.45,1.12.12,2.28.3l.32-.14q1.42.13,2.89.36,1.21-.44.35-1.17-1.84-.19-3.6-.25a41.42,41.42,0,0,0-16.49,1.36,18.74,18.74,0,0,0-8.46-1.84c-4.15.27-5.8.91-9.89,2.79-.87-.36-8.51-3.56-13.82-2a13.82,13.82,0,0,0-2.51,1q-1.41.82.16.82a14,14,0,0,1,6.08-1.64c13.72,2.29,14.82,14,1.9,14.1q-17.6-2.5-26.92-18.81-4.19-8.16.08-19.4a30.1,30.1,0,0,1,4.36-6.88q5.06-7.26,1.64-9c-1.71-1.24-3.23-1.57-4.59-1a3.77,3.77,0,0,0-1-.39c-5.1,6-8.15,11.8-11.28,19.66a25.22,25.22,0,0,1-5.79,8.9,27.84,27.84,0,0,1-2.83,5q-4.54,6.68-7.19,7.13-11.93,7.16-17.67,7.92-4.18-1.31-2.45-4.41,1.93-2.75,10.52-4.44.7-.57-.62-.66-5.85.92-8.26,2.65c-5.4,1.55-6.43-6.63,4.68-6.39q13,1.17,18.23-3.51.74-.52,1.42-1.06l.13-.1h0l.13-.11h0l.13-.1,0,0,.15-.12.09-.08,0,0,.43-.37,0,0,.11-.09,0,0,.12-.11h0l.12-.11h0l.11-.1,0,0,.1-.09,0,0h0l.25-.24.06-.05.33-.33h0l.11-.11h0l.11-.12h0l.1-.1,0,0,.09-.09,0,0,.48-.53,0,0,.09-.11h0l.1-.12h0l.12-.13L33,206l0,0q.34-.4.66-.82h0l.1-.12h0a22.65,22.65,0,0,0,1.7-2.58h0l.21-.39A113.24,113.24,0,0,0,42.35,189c4.31-8.82,11.67-18,17.88-25.56a61.23,61.23,0,0,1,18.43-15.16Q87,144.53,88.48,135a40.28,40.28,0,0,1,7.27-20q7.9-9.94,9.47-18.35A21.18,21.18,0,0,0,104,81.25q-3-7.24-11.69-9.7Q76.08,66.8,70.15,62.66q-13.9-8.14-17.45-22.13-2.83-12.22,4.68-21.12Zm81.26,102.74q.56-2.49,1.13-5.27a13.83,13.83,0,0,1,2.46-7.32q3.26-6,14.65-10.48,2.92-.38,7.09-3.47a24.33,24.33,0,0,0,3.58-5.3q1.07-2.52-1.7-3.73c-1.79,1.06-2.18,3.41-3.62,5.16q-2.94,3.85-6.79,2.45a5.7,5.7,0,0,1-4.1-.6q-2.83-3.37,5.26-6.47a4,4,0,0,0,2.61-1.95q.47-2.67-1.53-3.63-5,.95-10.1,7.16-9.2,14.2-8.88,25.64a24.88,24.88,0,0,1,.12,5.06,27.5,27.5,0,0,1-.17,2.75ZM108.34,221a25.58,25.58,0,0,0-3.82.91l.34.19A29.92,29.92,0,0,1,108.34,221Z" style="fill:#fff;fill-rule:evenodd"/><path d="M88.84,2.77q1.25-.27,2.54-.51a125.22,125.22,0,0,1,20.51-.85A57.64,57.64,0,0,1,130.95,6q19.29,7.95,27,21.66,5.49,10.92.23,20.65-7.8,12.39-28,18Q121,68.74,117,68.86q-10.73,2.2-11.18,9.93-.06.31-.09.63-3.17-6.17-11.09-8.4Q78.4,66.27,72.47,62.14,58.57,54,55,40q-2.83-12.22,4.67-21.12Q69,7.55,88.84,2.77ZM51,178a68.49,68.49,0,0,0-5.43,7.49q4.19-6,6.88-6.42a3.68,3.68,0,0,1,.64,0q2.25-1.4,5.21.74,3.42,1.78-1.64,9a30.12,30.12,0,0,0-4.36,6.88Q48,207,52.17,215.19q9.33,16.33,27,18.82c.4.05.82.13,1.2.16,11.24-2.83,5.25-12.5-5.46-13.74a13.88,13.88,0,0,0-6.08,1.64q-1.56,0-.16-.82a13.82,13.82,0,0,1,2.51-1c-.59-.11,6.21-2.42,13.59.39,9.14-2.3,15-1.11,20.1,1.49,7.29-2.67,22.19-2.65,18.22-.76a28,28,0,0,0-5.49-.51,31.94,31.94,0,0,0-6.54.46,22.27,22.27,0,0,0-7.23,3.46q-3.55,2.7,1.6,6.35a25.12,25.12,0,0,0,8.6,2.27,26.16,26.16,0,0,0,9.44-3.91q8.88-6.76,6.86-23.34-1.16-13.65-13-36.16a23,23,0,0,1-2.41-5.26q-2.44-7.41,8.57-12.39,2.84-1.32,6.59-7a23,23,0,0,1-7.1,5.89,16.71,16.71,0,0,1-3.89,1.09,13.3,13.3,0,0,1-6.63.43q-8.61.54-15-10.44-7.15-14,2.53-27.58l5.84-10.21a17.74,17.74,0,0,0,2-9.54q-.12.53-.26,1.06-1.57,8.41-9.47,18.35a40.29,40.29,0,0,0-7.27,20Q89.32,144,81,147.71a61.25,61.25,0,0,0-18.43,15.16q-7,8.54-11.6,15.17ZM141,111.69q.51-10.62,8.86-23.51,4-4.9,8-6.52,1.77,1,1.33,3.52a4,4,0,0,1-2.61,1.95q-8.09,3.1-5.26,6.47a5.7,5.7,0,0,0,4.1.6,5.1,5.1,0,0,0,4.19-.16q2.72.07,4.92-2.82c1.3-1.58,1.36-2.74,2.37-4a2.4,2.4,0,0,1,.63,3.11,24.33,24.33,0,0,1-3.58,5.3q-4.17,3.09-7.09,3.47-11.39,4.5-14.65,10.48a17.75,17.75,0,0,0-1.18,2.12ZM7.95,227.06q-4.24-1.31-2.51-4.43,1.59-2.27,7.73-3.82l.47-.1,0,0q1.08-.26,2.28-.5.7-.57-.62-.66a38.17,38.17,0,0,0-3.89.8,21.41,21.41,0,0,0-5.73,1.79A8.9,8.9,0,0,1,4.66,220c-3.08,0-3-4.79,2.36-5.54a15.1,15.1,0,0,1,2.41-.14,36,36,0,0,0,12.93-.74A15.1,15.1,0,0,0,30,210.28a30.33,30.33,0,0,0,3.22-2.61C28.13,219.38,20.27,223.71,7.95,227.06Z" style="fill:#6b9f53;fill-rule:evenodd"/><path d="M122.75,220.28c5.08-5.23,0-26.58-2.66-18.33-2.43,7.55-11,9.92-18.3,9.92-8.4,0-12.85,3.58-17,3.43-12.53-.46-15.66,4.48-14.76,5.33q.56-.22,1.13-.38c.77-.16,4.77-1.52,13.79,2.06,8.91-4.4,14.85-2.77,19.9-.17C110.21,220.16,119.72,219.65,122.75,220.28Z" style="fill:#3b6648;fill-rule:evenodd"/><path d="M84.4,38.43A13.33,13.33,0,1,0,71.07,25.1,13.35,13.35,0,0,0,84.4,38.43Z" style="fill:#fff;fill-rule:evenodd"/><path d="M134,38.31a12.94,12.94,0,1,0-12.94-12.93A13,13,0,0,0,134,38.31Z" style="fill:#fff;fill-rule:evenodd"/><path d="M109.4,44.7A15.7,15.7,0,1,0,93.7,29,15.73,15.73,0,0,0,109.4,44.7Z" style="fill:#fff;fill-rule:evenodd"/><path d="M109.4,42.48A13.64,13.64,0,1,0,95.76,28.84,13.66,13.66,0,0,0,109.4,42.48Z" style="fill:#201600;fill-rule:evenodd"/><path d="M134,36.53a11.2,11.2,0,1,0-11.2-11.2A11.22,11.22,0,0,0,134,36.53Z" style="fill:#201600;fill-rule:evenodd"/><path d="M84.38,36.64a11.5,11.5,0,1,0-11.5-11.5A11.52,11.52,0,0,0,84.38,36.64Z" style="fill:#201600;fill-rule:evenodd"/><path d="M109.52,40.82A12.33,12.33,0,1,0,97.19,28.49,12.35,12.35,0,0,0,109.52,40.82Z" style="fill:#fff;fill-rule:evenodd"/><path d="M133.91,35.63a10.3,10.3,0,1,0-10.3-10.3A10.32,10.32,0,0,0,133.91,35.63Z" style="fill:#fff;fill-rule:evenodd"/><path d="M84.59,35.67A10.58,10.58,0,1,0,74,25.09,10.6,10.6,0,0,0,84.59,35.67Z" style="fill:#fff;fill-rule:evenodd"/><circle cx="108.97" cy="27.48" r="4.09" style="fill:#201600"/><circle cx="131.59" cy="25.07" r="3.36" style="fill:#201600"/><circle cx="86.9" cy="24.87" r="3.45" style="fill:#201600"/><circle cx="109.12" cy="26.92" r="1.47" style="fill:#fff"/><circle cx="131.71" cy="24.62" r="1.21" style="fill:#fff"/><circle cx="86.78" cy="24.4" r="1.24" style="fill:#fff"/><path d="M66.9,35.9q-1.79.89-.7,2.1c19.86,23.57,72.38,28,84.85-1.4a7.09,7.09,0,0,0,.08-3.9q-1.63-5.72.78-3.12,4.77,6.19,3.27,12.7-.9,1.43-1.48-.39.62-6.41-1.71-3.66c-13.31,29.12-67.85,25.1-86.73.47q-1.54-1.61-1.83-.47Q61.82,41.91,61,39.92q.07-4.28,4.68-5.53Q69,33.5,66.9,35.9Z" style="fill:#fff;fill-rule:evenodd"/><path d="M65.84,34.64q-1.79.89-.7,2.1c19.86,23.57,72.38,28,84.86-1.4a7.11,7.11,0,0,0,.08-3.9q-1.63-5.72.78-3.12,4.77,6.19,3.27,12.7-.9,1.43-1.48-.39.62-6.41-1.71-3.66c-13.31,29.12-67.85,25.1-86.73.47q-1.54-1.61-1.83-.47Q60.76,40.65,60,38.66q.08-4.28,4.68-5.53Q67.89,32.24,65.84,34.64Z" style="fill:#201600;fill-rule:evenodd"/><path d="M110.14,63.4q1.36-.7.23-1.8a15.55,15.55,0,0,0-8.1-.22q-1.16,1-.16,2A31.68,31.68,0,0,1,110.14,63.4Z" style="fill:#fff;fill-rule:evenodd"/><path d="M109.4,62q1.36-.5.23-1.29a21.61,21.61,0,0,0-8.1-.16q-1.16.72-.16,1.4A44.23,44.23,0,0,1,109.4,62Z" style="fill:#201600;fill-rule:evenodd"/><path d="M101,174.46c1.06-4.5-13.77-4.52-17.74-1-2,1.79-.16,2.74,1.72,2.33a29.61,29.61,0,0,1,13.4-.39C99.74,175.45,100.86,175.08,101,174.46Z" style="fill:#fff;fill-rule:evenodd"/><path d="M111.83,176q.48-.61-.43-1.33-19.86-12.1-39.82,2.8-2,1.83-.35,1.64a1.9,1.9,0,0,0,1.29-.82q18.34-14.41,37.87-3.08Q111.4,176.85,111.83,176Z" style="fill:#201600;fill-rule:evenodd"/><path d="M82.13,224.6a1.2,1.2,0,0,0-.55-1.21c-3.39-2-6.49-2.82-9.52-2.05-2.87.39-2.07,2.11-.19,1.7a10,10,0,0,1,8.61,1.6Q81.82,225.24,82.13,224.6Z" style="fill:#fff;fill-rule:evenodd"/></g></g></svg>