<svg xmlns="http://www.w3.org/2000/svg" viewBox="0 0 175.47 226.62"><title>pers4</title><g id="Слой_2" data-name="Слой 2"><g id="_лой_1" data-name="—лой 1"><path d="M11.9,50.35Q24.26,29.81,39,17.48q10.61-10,21-9.77Q72,8.06,87.81,2.34q22.6-6.91,44.54,6.54,16.28,11.76,18.13,31c3.26,31.23,28.27,55-3.15,86.95-18.44,15.3-30.18,28.73-33.27,38.07-1.69,5.1-.85,9.57-.23,14.8,1.35,11.33,7.08,18.12,15.6,18.71a15.09,15.09,0,0,0,9.62-2c7.33-3.24,14.07-.46,19.51,8.83,4.17,5.62,9.83,6.36,16.28,3q1.44.18-.39,1.34c-15,12.2-22.28-10.77-34.84-2.21q-13.12,7.38-24.67-1.5-7-6.07-8.28-12.06-1.64-9.35-6-6.07-2,2.11.16,6.94c4.17,4.91-6,12.49,2.92,13.12,16.43-4.71,11.14,8.64,15,9,2.54.34,3.6,1.59,2.9,4.45-.11,2.85,1.62,4.89,5.16,4.67.58.81,0,.91-1.74.73-6.67-1.71-4-6.83-7-6.46-2.21.22-3.93-1.4-5.08-4.89-1.05-2.37-3.5-2.76-6.44-1.28-5.37,2.54-7.72,3.28-12.67,2.21q-6.93-2.71-4.41-9.7,1.19-2.56,3.07-5.75a3.88,3.88,0,0,0-.47-5,11.58,11.58,0,0,1-2.13-5.83c-2.74-13.59-13.83-9-9.62,3.47q3.57,13.36-4.26,19.23c-10.31,8.63-20.68-4.56-23.41,4.65Q51.33,221,48,220.93c2.44-3.65.79-5.74,1.44-9.16.83-4.37,4.5-6.44,11-6.13q8.49,1,9.07-5,.5-16.44-8.36-14.66-4.54.35-5.44,11.11Q54,210.9,36.42,214.23q-6.5,1.17-15.21-3.7-7.4-5.95-12.69.79Q4.85,217.86,0,216.83a18.52,18.52,0,0,0,6.07-7.88c4.3-9,14.41-9.07,22-4,7.51,3,16-1,21.17-10.41Q56.68,178.26,45,147c-7.17-15.77-17.08-18.76-24-31.53C9.57,94.7-5.72,74.58,11.9,50.35Z" style="fill:#201600;fill-rule:evenodd"/><path d="M82.87,5.18A39.7,39.7,0,0,1,95.77,1.39Q130.87-.5,145.51,26a30.93,30.93,0,0,1,3.31,12.22,115,115,0,0,0,5.44,22.47q8.36,25.55,7.33,33Q161.51,111,145.28,127q-17.76,15.24-26,27c-2.9,3.66-5.14,7.16-6,10.71-2.19,9.35-.07,28.78,10.38,32.65q8.33,3.17,14.35,0,9.93-4.46,15.76,2.29a31,31,0,0,1,4.14,5.16q4.71,7.87,14,5.36,2.78-1.1.12.47-3.57,2.08-9.14,1.46c-8.41-2.52-13.81-11.34-22.62-6q-8.77,5.42-18,2.92c-7.62-3.19-13.65-9-15.22-17.21q-1.37-7.19-5.55-5.49-4.55,2.65-.79,8.87c2.91,4.68-6.57,12.16,3,12.89,16.22-4.31,11.33,8.13,14.57,8.79,1.83.37,3.81.29,3.36,3.36-.56,3.81,1,5.56,4.93,5.94,0,.16-.05.23-.3.22a6.29,6.29,0,0,1-6.07-5q-.71-1.95-2.38-1.6-2.51.28-4.14-3.69,0-.2-.09-.38-.86-3.26-3.89-3.1c-5.48.62-7.64,5.23-15.78,2.72Q88,212.86,90,206.72a47.52,47.52,0,0,1,3.55-6.27,4.42,4.42,0,0,0-.75-5.24,10.18,10.18,0,0,1-1.66-3.82c-2.57-17-13.83-10.37-12.65-3a33.3,33.3,0,0,0,1.26,5.6q2.6,10.16-1.73,15.65c-10.48,12.13-22.34-2-25.5,6.48q-1.67,4.37-3.63,4.32a11.39,11.39,0,0,0,.91-5.25h0a9.52,9.52,0,0,1,.48-5l0,0q1.49-3.29,6.15-4.18a19.37,19.37,0,0,1,5.14,0q7.42.45,8.16-4.57a25.94,25.94,0,0,0-1-11.35q-1.29-4.88-6-4.85-4.69-.24-6.23,5.06a18.17,18.17,0,0,0-1.08,6.09q-1,6.75-4.22,9.91-5.46,6.06-15.63,7.39a20.62,20.62,0,0,1-12.4-2.92q-6.65-5-10.68-3.23a6.91,6.91,0,0,0-4.57,4q-3.52,5.1-6.66,4.85a16.79,16.79,0,0,0,5.4-7.37,11.42,11.42,0,0,1,9.62-7.21q8.21.81,11.27,3.23,12.29,4.6,22.11-10.13,4.71-9.62,2.48-23.61a111.35,111.35,0,0,0-6-22.94,44.24,44.24,0,0,0-10-15.84,52.18,52.18,0,0,0-5.2-5.64q-5.37-5.46-7-8.55a42.64,42.64,0,0,1-3.47-5.71c-9.12-17.4-22.71-34.84-11-56.28q14.12-23.68,30-38Q50.19,8.54,60.6,8.65A58.42,58.42,0,0,0,82.87,5.18Z" style="fill:#50825f;fill-rule:evenodd"/><path d="M82.87,5.18A39.7,39.7,0,0,1,95.77,1.39q3.54-.19,6.87-.09,26.7,2.24,39,24.47A30.94,30.94,0,0,1,144.94,38a115.2,115.2,0,0,0,5.44,22.47Q158.74,86,157.71,93.4q-.08,17.41-16.32,33.42-17.76,15.24-26,27c-11.08,14-10.22,46.34,13.13,44.91a14.77,14.77,0,0,0,9.52-1.34,19.38,19.38,0,0,1,5.93-1.7,11.2,11.2,0,0,1,6,3.77,31.08,31.08,0,0,1,4.14,5.16q3.94,6.59,11.06,5.9a11.22,11.22,0,0,0,2.35.28,12.9,12.9,0,0,1-5,1.22c-6.86-2.13-11.16-8.33-17.95-7.43a10.52,10.52,0,0,0-8.2,1.36,23.21,23.21,0,0,1-11.46,3.69,23.08,23.08,0,0,1-2.67-.56c-8.65-3.54-13.87-8.76-15.36-17.9-.71-4.33-2.76-5.88-5.41-4.8l-.43.27a3,3,0,0,0-3.45-.49Q93,188.79,96.78,195c2.12,6.52-10.19,14.57,6.88,13.11a24.47,24.47,0,0,1,4.65-.48c4.89,1.2,4.21,3.57,4.77,6.88a3.36,3.36,0,0,0-3.43-1.88,8.34,8.34,0,0,0-1.6.33c-4.84,0-6.56,4.7-14.18,2.39Q88,212.86,90,206.72a47.52,47.52,0,0,1,3.55-6.27,4.42,4.42,0,0,0-.75-5.24,10.18,10.18,0,0,1-1.66-3.82c-1.26-8.33-4.73-11.52-8.55-10.4-3.62-2.14-9.17,1.47-8,7.18a33.3,33.3,0,0,0,1.26,5.6q2.6,10.16-1.73,15.65C63,218.1,63,210.8,58.33,212.16c-1.83-.54-4.9.06-6.93.93q-.29,5.46-2.26,7.34h-.25a11.39,11.39,0,0,0,.91-5.25h0a9.52,9.52,0,0,1,.48-5l0,0q1.49-3.29,6.15-4.18a19.37,19.37,0,0,1,5.14,0q7.42.45,8.16-4.57a25.94,25.94,0,0,0-1-11.35q-1.29-4.88-6-4.85a6.78,6.78,0,0,0-1.64.1,6.92,6.92,0,0,0-2.24-.32q-4.69-.24-6.23,5.06a18.18,18.18,0,0,0-1.08,6.09q-1,6.75-4.22,9.91-5.46,6.06-15.63,7.39l-.93.07a23,23,0,0,1-7.59-2.77q-6-4.5-9.84-3.52a6.64,6.64,0,0,0-4.72.07A10.31,10.31,0,0,0,7.2,208a11.19,11.19,0,0,1,8.19-6q5.83.9,8.3,2.86A15.75,15.75,0,0,0,30.52,206q10.53,2,19.16-11,4.71-9.62,2.48-23.61a111.35,111.35,0,0,0-6-22.94,44.24,44.24,0,0,0-10-15.84,52.18,52.18,0,0,0-5.2-5.64q-5.37-5.46-7-8.55a42.64,42.64,0,0,1-3.47-5.71c-9.12-17.4-22.71-34.84-11-56.28q14.12-23.68,30-38Q50.19,8.54,60.6,8.65A58.42,58.42,0,0,0,82.87,5.18Z" style="fill:#fff;fill-rule:evenodd"/><path d="M96,1.38q3.4-.17,6.61-.08,26.7,2.24,39,24.47A30.94,30.94,0,0,1,144.94,38a115.2,115.2,0,0,0,5.44,22.47Q158.74,86,157.71,93.4q-.08,17.41-16.32,33.42-17.76,15.24-26,27c-11.08,14-10.22,46.34,13.13,44.91a16.34,16.34,0,0,0,5.66,0c4-.24,6.25-2.22,9.95-3a11.24,11.24,0,0,1,5.79,3.73,31.08,31.08,0,0,1,4.14,5.16,14.54,14.54,0,0,0,2.36,3c-4.28-2.72-9.63-4.44-14.72-3.35a10.77,10.77,0,0,0-5.34,1.66,24.24,24.24,0,0,1-8.81,3.43l-.85,0a23,23,0,0,1-2.67-.56c-8.53-3.56-13-8.75-15.35-17.44-3.26-12-18-6.43-11.88,3.61,2.86,4.59-6.59,11,4.67,12.83,4.18.68,11.2-.69,11.65,6.66a3.46,3.46,0,0,0-2.88-1.88,5,5,0,0,0-.55,0,3.77,3.77,0,0,0-2.1-.44c-3.88.44-9,3.91-12.14,2.94-3.92-1.66-5-4.54-3.63-8.63a47.76,47.76,0,0,1,3.55-6.27,4.42,4.42,0,0,0-.75-5.24,10.18,10.18,0,0,1-1.66-3.82c-2.56-16.88-19.77-12-18.33-3a33.3,33.3,0,0,0,1.26,5.6q2.6,10.16-1.73,15.65C65,220,55.48,208.15,52.52,216.12c-.95,2.49-2,4.14-3.37,4.32,3.16-4,1.2-7.58,3.36-11.2h0a7.89,7.89,0,0,1,5.23-3.3,17.37,17.37,0,0,1,3.85.13,14.32,14.32,0,0,0,3.74-.2q5.58-.27,6.21-4.59c1.61-15.46-8.93-25.78-17.55-14a45.9,45.9,0,0,0,0-16.12,111.28,111.28,0,0,0-6-22.94,44.23,44.23,0,0,0-10-15.84,52.1,52.1,0,0,0-5.2-5.64q-5.37-5.46-7-8.55a42.93,42.93,0,0,1-3.47-5.71c-9.12-17.4-22.71-34.84-11-56.28q14.12-23.68,30-38Q50,10.11,58.62,8.72q1-.08,2-.07a49.54,49.54,0,0,0,9.74-.42c4.24,0,8.54,0,13.54-1.69C87.57,4.75,92.15,2,96,1.38ZM160.3,210a11.53,11.53,0,0,0,4.81.48,11.22,11.22,0,0,0,2.35.28,11.88,11.88,0,0,1-3.08,1h-.08a21.13,21.13,0,0,1-4-1.76ZM51.64,194.42l-.17.35Q44.32,205.51,35.85,206a14.32,14.32,0,0,1-5.34,0c-5.56,0-8.61-3.23-14.6-3.83a11,11,0,0,0-6.56,5,5.88,5.88,0,0,1,1.74-.2,15.57,15.57,0,0,0,2.31.42c1.45.07,4.24-.77,9.79,3.53a23.68,23.68,0,0,0,7.73,2.79l1.89-.29q9.36-1.5,14.52-7.23,3.21-3.16,4.22-9.91A14.33,14.33,0,0,1,51.64,194.42Z" style="fill:#89be5c;fill-rule:evenodd"/><path d="M79,180.73c-2.92,1.3-5,4.08-4.44,7.44a33.3,33.3,0,0,0,1.26,5.6q2.6,10.16-1.73,15.65C65,220,55.48,208.15,52.52,216.12c-.95,2.49-2,4.14-3.37,4.32,3.16-4,1.2-7.58,3.36-11.2h0a7.89,7.89,0,0,1,5.23-3.3,17.37,17.37,0,0,1,3.85.13,14.32,14.32,0,0,0,3.74-.2q5.58-.27,6.21-4.59c1.61-15.46-8.93-25.78-17.55-14a45.9,45.9,0,0,0,0-16.12,111.28,111.28,0,0,0-6-22.94,44.23,44.23,0,0,0-10-15.84,52.1,52.1,0,0,0-5.2-5.64q-5.37-5.46-7-8.55a42.93,42.93,0,0,1-3.47-5.71c-9.12-17.4-22.71-34.84-11-56.28q14.12-23.68,30-38Q50,10.11,58.62,8.72q1-.08,2-.07a49.54,49.54,0,0,0,9.74-.42c4.24,0,8.54,0,13.54-1.69,3.44-1.66,7.64-4.18,11.34-5a59,59,0,0,1,16.52,19.26,38.7,38.7,0,0,1,4.14,15.29,144.13,144.13,0,0,0,6.8,28.11q10.45,32,9.17,41.22-.1,21.78-20.41,41.81Q89.38,166.15,79,180.73Zm-27.4,13.69-.17.35Q44.32,205.51,35.85,206a14.32,14.32,0,0,1-5.34,0c-5.56,0-8.61-3.23-14.6-3.83a11,11,0,0,0-6.56,5,5.88,5.88,0,0,1,1.74-.2,15.57,15.57,0,0,0,2.31.42c1.45.07,4.24-.77,9.79,3.53a23.68,23.68,0,0,0,7.73,2.79l1.89-.29q9.36-1.5,14.52-7.23,3.21-3.16,4.22-9.91A14.33,14.33,0,0,1,51.64,194.42Z" style="fill:#abcb56;fill-rule:evenodd"/><circle cx="72.09" cy="46.59" r="8.25" style="fill:#50825f"/><circle cx="70.81" cy="45.2" r="7.12" style="fill:#201600"/><circle cx="70.99" cy="45.19" r="6.25" style="fill:#fff"/><circle cx="71.99" cy="45.83" r="2.58" style="fill:#201600"/><circle cx="72.44" cy="45.33" r="1.06" style="fill:#fff"/><circle cx="102.27" cy="45.46" r="25" style="fill:#50825f"/><circle cx="100.17" cy="44.56" r="22.58" style="fill:#201600"/><circle cx="99.88" cy="44.55" r="21.36" style="fill:#fff"/><circle cx="102.52" cy="42.19" r="3.68" style="fill:#201600"/><circle cx="101.94" cy="42.05" r="1.47" style="fill:#fff"/><path d="M61.91,39.59q-3.33.73-1.24-.32,5-4.49,4.81-10,3.3,1.46,3.92,3.36Q66.84,38.34,61.91,39.59Z" style="fill:#201600;fill-rule:evenodd"/><path d="M111.53,12.92a42.26,42.26,0,0,0,8.33,8.33q-7.77.69-10.65-4.89A5.19,5.19,0,0,0,111.53,12.92Z" style="fill:#201600;fill-rule:evenodd"/><path d="M36.35,72.25q2-5.63-2-4.1-4.44,1.61-4.26,4.65c2.79,10,7.45,18.53,15,24.28,3.68,3.4,8.2,3.47,12.59,1.49s10.45-9.18,15.73-3.46q9.32,12.2,17.5,10.72,6.18-.91,9.22-5.28,1.64-3.27,5.83-1.26c12.48,6.83,26.63.63,27.51-13.87-.17-8.94,1.17-13.85,5.44-14.43q4.65.3,5.28,3.78,2.85-.65.39-3.39-6.45-4.28-10.48,1.18-3,3.73-3.08,12.69c-2.08,13.84-11.57,16.85-23.84,11.9-3.51-2-6.49-.88-8.4,2.21-7.35,7.17-14.77,5.09-23-5.28-5.48-6-10.23-2.86-15.36,1C45.22,106.38,34.17,80.63,36.35,72.25Z" style="fill:#fff;fill-rule:evenodd"/><path d="M35.32,73.6q2-5.63-2-4.1-4.44,1.61-4.26,4.65,4.19,15,15.45,23.65,5.52,5.09,12.09,2.12c4.31-1.95,10.45-9.18,15.73-3.46q9.32,12.2,17.5,10.72,6.18-.91,9.22-5.28,1.64-3.27,5.83-1.26c12.48,6.83,25.92.47,26.8-14q-.25-13.4,6.15-14.27,4.65.3,5.28,3.78,2.85-.65.39-3.39-6.45-4.28-10.48,1.18-3,3.73-3.08,12.69c-2.08,13.84-11.84,17.48-24.12,12.53q-5.26-3.06-8.12,1.58-11,10.75-23.33-4.81c-5.48-6-9.88-3.33-15,.48C44.19,107.73,33.14,82,35.32,73.6Z" style="fill:#201600;fill-rule:evenodd"/><path d="M66.57,142.45c-9.28-3.75-23.49,11.94-10.51,14.27,4.09.73,5.43,1.45,9.68-2,2.44-2,9.22-8.71,3.69-11C68.07,143.12,68.19,143.1,66.57,142.45Z" style="fill:#50825f;fill-rule:evenodd"/><path d="M70.38,155.48c1.2,3.49,9.35-.74,4.06-3.16C74.11,151.72,68.8,150.88,70.38,155.48Z" style="fill:#50825f;fill-rule:evenodd"/><path d="M142.54,110.64c-4.79.56-7.64.2-10.94,5.06-3.55,5.23,8.48,6.48,11,4.28,3.52-3.12,4.71-5.52,1.41-8.56A12.85,12.85,0,0,0,142.54,110.64Z" style="fill:#50825f;fill-rule:evenodd"/><path d="M143.49,96.61c-6.57,0-10.52,11.73,1.46,11.51,9.39-.17,10.91,2.58,7.25-8.71C151.67,97.78,145.15,96.61,143.49,96.61Z" style="fill:#50825f;fill-rule:evenodd"/><path d="M134.5,105.68c-2.84-1.16-2.68-.14-2.68,1.58.26,0,3.8,2.94,3.18-.83A1.36,1.36,0,0,0,134.5,105.68Z" style="fill:#50825f;fill-rule:evenodd"/><path d="M133.95,123.89c-6.52-.9-3.29,6.28,1.63,4C136.71,127.4,136.88,124.29,133.95,123.89Z" style="fill:#50825f;fill-rule:evenodd"/><path d="M31.39,104.65c-6.52.56-13.5-4.4-12.63,4.72C19,112,32.32,111.78,33,106.45A2,2,0,0,0,31.39,104.65Z" style="fill:#89be5c;fill-rule:evenodd"/><path d="M31.39,104.65c-5.62.48-11.57-3.13-12.56,1.68.84,1.51,1.68,3,2.49,4.51,4,.68,11.17-.51,11.66-4.39A2,2,0,0,0,31.39,104.65Z" style="fill:#50825f;fill-rule:evenodd"/><path d="M33.68,109.93c-9.28,1.6.59,10.51.72.42C34.41,110,34.09,109.86,33.68,109.93Z" style="fill:#50825f;fill-rule:evenodd"/><path d="M18.31,77c-5.84-1.42-2.36,8.5,1,2.56C19.44,79.36,20,77.4,18.31,77Z" style="fill:#50825f;fill-rule:evenodd"/><path d="M22.8,81.79c-7,2.11,1.92,7.88,1.35.24C24.12,81.49,23.11,81.7,22.8,81.79Z" style="fill:#50825f;fill-rule:evenodd"/><path d="M10.5,90.15c4.73-1.64,10.59-2.94,8.94,4.82-.3,1.4-3.5,3.83-6.29,4.55-1.53-2.85-3-5.72-4.22-8.64C9.35,90.28,9.93,90.35,10.5,90.15Z" style="fill:#89be5c;fill-rule:evenodd"/><path d="M10.5,90.15c4.73-1.64,10.59-2.94,8.94,4.82-.24,1.14-2.39,2.95-4.68,4C13.21,96,11.75,93.12,10.5,90.15Z" style="fill:#50825f;fill-rule:evenodd"/><path d="M98.27,174.6c.41,1.61,8.7,3.42,8.49-3.46C106.52,163.74,96.9,169.21,98.27,174.6Z" style="fill:#50825f;fill-rule:evenodd"/><path d="M107.3,162.51c0-2.54-5.79,2.44.74,2.76C110.3,165.38,107.3,162.39,107.3,162.51Z" style="fill:#50825f;fill-rule:evenodd"/><path d="M34.66,23a4.69,4.69,0,0,1,.67,2.65c-.12,5.59-1.25,7.11-5.79,11.11a19.82,19.82,0,0,1-7.86,1.32A146.5,146.5,0,0,1,34.66,23Z" style="fill:#89be5c;fill-rule:evenodd"/><path d="M35.15,24.12a5.22,5.22,0,0,1,.18,1.54c-.12,5.59-1.25,7.11-5.79,11.11a18.65,18.65,0,0,1-6.22,1.31A149.19,149.19,0,0,1,35.15,24.12Z" style="fill:#50825f;fill-rule:evenodd"/><path d="M39,32.29c-5.85.91-5.47,2.06-.89,4.53,4.31,2.33,8.15-3.42,1.54-4.63A2.37,2.37,0,0,0,39,32.29Z" style="fill:#50825f;fill-rule:evenodd"/><path d="M37.24,20.49C36.4,23,36.49,26,39.61,27.38c6.37,2.72,6.07-.24,8.9-4.54,1.58-2.41-2.12-7.49-5.55-7.37q-1.74,1.34-3.48,3Q38.35,19.43,37.24,20.49Z" style="fill:#89be5c;fill-rule:evenodd"/><path d="M36.82,22.42a4.49,4.49,0,0,0,2.79,5c6.37,2.72,6.07-.24,8.9-4.54,1.38-2.1-1.28-6.26-4.27-7.19q-1.48,1.18-3,2.55Q39,20.22,36.82,22.42Z" style="fill:#50825f;fill-rule:evenodd"/><ellipse cx="64.99" cy="212.29" rx="1.42" ry="1.27" style="fill:#50825f"/><ellipse cx="132.16" cy="205.63" rx="1.42" ry="1.27" transform="translate(-78.21 81.16) rotate(-26.66)" style="fill:#50825f"/><ellipse cx="28.11" cy="210.5" rx="1.27" ry="1.42" transform="translate(-173.06 142.45) rotate(-63.71)" style="fill:#50825f"/><ellipse cx="66.27" cy="209.24" rx="1.23" ry="1.1" style="fill:#50825f"/><ellipse cx="129.65" cy="203.47" rx="1.23" ry="1.1" transform="translate(-77.52 79.81) rotate(-26.66)" style="fill:#50825f"/><ellipse cx="30.61" cy="208.32" rx="1.1" ry="1.23" transform="translate(-169.73 143.52) rotate(-63.72)" style="fill:#50825f"/><ellipse cx="68.75" cy="211.87" rx="1.18" ry="1.1" style="fill:#50825f"/><ellipse cx="128.61" cy="206.94" rx="1.18" ry="1.1" transform="translate(-79.18 79.72) rotate(-26.66)" style="fill:#50825f"/><ellipse cx="31.67" cy="211.79" rx="1.1" ry="1.18" transform="translate(-172.24 146.37) rotate(-63.71)" style="fill:#50825f"/><ellipse cx="71.94" cy="207.52" rx="1.18" ry="1.1" style="fill:#50825f"/><ellipse cx="98.82" cy="210.26" rx="1.1" ry="1.18" transform="translate(-65.7 46.23) rotate(-19.91)" style="fill:#50825f"/><ellipse cx="123.82" cy="204.49" rx="1.18" ry="1.1" transform="translate(-78.58 77.29) rotate(-26.66)" style="fill:#50825f"/><ellipse cx="36.45" cy="209.3" rx="1.1" ry="1.18" transform="translate(-167.32 149.2) rotate(-63.69)" style="fill:#50825f"/><ellipse cx="70.83" cy="209.97" rx="0.63" ry="0.59" style="fill:#50825f"/><ellipse cx="96.15" cy="210.05" rx="0.59" ry="0.63" transform="translate(-65.76 45.27) rotate(-19.9)" style="fill:#50825f"/><ellipse cx="125.9" cy="206.17" rx="0.63" ry="0.59" transform="translate(-79.15 78.45) rotate(-26.67)" style="fill:#50825f"/><ellipse cx="34.38" cy="211" rx="0.59" ry="0.63" transform="translate(-170.02 148.34) rotate(-63.7)" style="fill:#50825f"/><ellipse cx="58.81" cy="211.51" rx="0.84" ry="0.79" style="fill:#50825f"/><ellipse cx="137.33" cy="202.15" rx="0.84" ry="0.79" transform="translate(-76.15 83.2) rotate(-26.68)" style="fill:#50825f"/><ellipse cx="144.94" cy="201.79" rx="0.79" ry="0.84" transform="translate(-82.55 301.68) rotate(-78.02)" style="fill:#50825f"/><ellipse cx="22.92" cy="207.06" rx="0.79" ry="0.84" transform="translate(-172.88 135.93) rotate(-63.72)" style="fill:#50825f"/><ellipse cx="56.66" cy="210.45" rx="0.71" ry="0.67" style="fill:#50825f"/><ellipse cx="138.78" cy="200.25" rx="0.71" ry="0.67" transform="translate(-75.07 83.52) rotate(-26.65)" style="fill:#50825f"/><ellipse cx="147.26" cy="201.21" rx="0.67" ry="0.71" transform="translate(-80.16 303.45) rotate(-78.01)" style="fill:#50825f"/><ellipse cx="21.46" cy="205.16" rx="0.67" ry="0.71" transform="translate(-172.01 133.59) rotate(-63.73)" style="fill:#50825f"/><ellipse cx="54.61" cy="212.02" rx="0.55" ry="0.52" style="fill:#50825f"/><ellipse cx="141.31" cy="200.73" rx="0.55" ry="0.52" transform="translate(-75.05 84.76) rotate(-26.66)" style="fill:#50825f"/><ellipse cx="148.94" cy="203.17" rx="0.52" ry="0.55" transform="translate(-80.8 306.51) rotate(-77.98)" style="fill:#50825f"/><ellipse cx="18.93" cy="205.66" rx="0.52" ry="0.55" transform="translate(-173.83 131.5) rotate(-63.7)" style="fill:#50825f"/><ellipse cx="74.64" cy="205.59" rx="0.63" ry="0.59" style="fill:#50825f"/><ellipse cx="101.56" cy="212.14" rx="0.59" ry="0.63" transform="translate(-66.2 47.29) rotate(-19.92)" style="fill:#50825f"/><ellipse cx="120.53" cy="203.97" rx="0.63" ry="0.59" transform="translate(-78.73 75.8) rotate(-26.67)" style="fill:#50825f"/><ellipse cx="39.73" cy="208.77" rx="0.59" ry="0.63" transform="translate(-165.02 151.85) rotate(-63.69)" style="fill:#50825f"/><ellipse cx="74.77" cy="202.94" rx="0.92" ry="0.87" style="fill:#50825f"/><ellipse cx="104.1" cy="211.35" rx="0.87" ry="0.92" transform="translate(-65.8 48.13) rotate(-19.93)" style="fill:#50825f"/><ellipse cx="119.23" cy="201.66" rx="0.92" ry="0.87" transform="translate(-77.82 74.96) rotate(-26.67)" style="fill:#50825f"/><ellipse cx="41.02" cy="206.45" rx="0.87" ry="0.92" transform="translate(-162.22 151.7) rotate(-63.69)" style="fill:#50825f"/><ellipse cx="73.53" cy="209.04" rx="0.41" ry="0.39" style="fill:#50825f"/><ellipse cx="97.94" cy="212.27" rx="0.39" ry="0.41" transform="translate(-66.54 46.14) rotate(-19.95)" style="fill:#50825f"/><ellipse cx="123.07" cy="206.56" rx="0.41" ry="0.39" transform="translate(-79.6 77.18) rotate(-26.66)" style="fill:#50825f"/><ellipse cx="37.21" cy="211.37" rx="0.39" ry="0.41" transform="translate(-168.72 150.92) rotate(-63.66)" style="fill:#50825f"/><ellipse cx="74.71" cy="199.66" rx="0.41" ry="0.39" style="fill:#50825f"/><ellipse cx="107.16" cy="210.19" rx="0.39" ry="0.41" transform="translate(-65.18 49.07) rotate(-19.91)" style="fill:#50825f"/><ellipse cx="117.8" cy="198.71" rx="0.41" ry="0.39" transform="translate(-76.63 73.98) rotate(-26.66)" style="fill:#50825f"/><ellipse cx="61.97" cy="209.55" rx="1.77" ry="1.64" style="fill:#50825f"/><ellipse cx="133.63" cy="201.83" rx="1.76" ry="1.64" transform="translate(-76.35 81.42) rotate(-26.66)" style="fill:#50825f"/><ellipse cx="26.4" cy="207.3" rx="1.64" ry="1.77" transform="translate(-171.14 139.11) rotate(-63.7)" style="fill:#50825f"/><ellipse cx="95.08" cy="212.19" rx="0.87" ry="0.92" transform="translate(-66.55 45.03) rotate(-19.9)" style="fill:#50825f"/></g></g></svg>