<svg xmlns="http://www.w3.org/2000/svg" viewBox="0 0 205.11 241.73"><title>pers3</title><g id="Слой_2" data-name="Слой 2"><g id="_лой_1" data-name="—лой 1"><path d="M66.32,11.27q-3.18-5.41.78-1.57,15.11,18.24,16,57-.11,2.89,4.08,3.45,31.29,8.32,45.91,37.44,10.31,23.56-1.88,49.57-5.44,12.18-2,23.84c7.58,23.61,46.11,44.38,69.22,41.26,6.81-.92,10.19,1.12,1.37,4.65a9.91,9.91,0,0,0-6.87,2.67c-2.74,2.73-10.94,2.49-23.4-.84q-11.6-3.21-20.86,6.64-8,6.48-20.24-.63-5.79-2.61-16.83,4.24-18,7.51-32.84-5.44-9.52-7.35-21.12-.84-14.09,9.42-24.37,6.17-3.18-2.26-12.55.84C22.1,229.35,11,213,7.29,202.32Q-2.51,174,.86,146.75C4,123.52,13.4,94.55,33.86,80.55c9.36-6.4,21.59-10,37.54-11q3-.08,3.92-4.34Q79.93,36,66.32,11.27Z" style="fill:#201600;fill-rule:evenodd"/><path d="M67.17,11.14Q66,9.54,70.55,17.7q9.53,23.19,6.12,43.87-.68,8.6-3.11,9c-28.09,1.68-42.74,8.28-58.09,32.26q-16.22,31-14,68.91A126.64,126.64,0,0,0,8.4,202.49c4,10.8,13.6,24.37,13.6,35.46q8.36-2.56,12-.05,8.64,2,18.09-3.24,12.45-9.14,22.74-5a24.12,24.12,0,0,1,7.22,4.92q13.36,9.55,29.28,3.56,9.13-6,15.53-4.91c7.22,2.25,13.69,7.8,21.33,1.15q8.84-10.17,22.22-6.54,15.22,3.88,21.23,1.36a10.33,10.33,0,0,1,7.32-3.29q5.59-1.91,4.65-3a10.84,10.84,0,0,0-4.75.27c-23.66,4.5-63.67-18.26-71.43-43q-2.52-14.29,3.5-25.41,8.13-21.59,3.82-36.76Q125,84.15,88.24,72a22.84,22.84,0,0,0-2.35-.71q-3.83-1-4.13-4C81.54,50.66,78.76,24.45,67.17,11.14Z" style="fill:#6b9f53;fill-rule:evenodd"/><path d="M74.75,69.73c-.43.77-.61.71-1.19.8-28.09,1.68-42.74,8.28-58.09,32.26q-16.22,31-14,68.91A126.64,126.64,0,0,0,8.4,202.49c3.79,10.36,12.82,23.26,13.55,34.09h0c0,.46,0,.92,0,1.37q1.71-.52,3.21-.83h1.25q5-.77,7.57,1l.89.18a29.79,29.79,0,0,0,9.75-3.51q10.78-7.91,19.94-5.85a17.89,17.89,0,0,1,10.25,1,24.12,24.12,0,0,1,7.22,4.92,30.31,30.31,0,0,0,13.39,5.58,35.71,35.71,0,0,0,8.44-2.11q9.13-6,15.53-4.91.73.23,1.38.46a14.24,14.24,0,0,1,6.07-.38c3.41,1.07,6.08,2.55,9.44,3.37a10.23,10.23,0,0,0,4.44-2.3q7.94-9.14,19.55-7.13a23.38,23.38,0,0,1,10.12.68,81.75,81.75,0,0,0,10.69,2.08,12.4,12.4,0,0,0,3.09-.8,10.33,10.33,0,0,1,7.32-3.29q4.42-1.51,4.76-2.53a41.85,41.85,0,0,1-7.46-.08q-18.74,1.54-45.72-15.27Q125.74,198.34,120,180.1q-2.52-14.29,3.5-25.41,8.13-21.59,3.82-36.76-9.75-33.86-46.53-46a23.09,23.09,0,0,0-2.35-.71C76.87,70.82,75.43,70.7,74.75,69.73Z" style="fill:#fff;fill-rule:evenodd"/><path d="M74.75,69.73a1.85,1.85,0,0,1-1.19.8A108.44,108.44,0,0,0,51,73.84C38,78.2,28.36,86.43,18.48,101.88q-16.22,31-14,68.91a126.67,126.67,0,0,0,6.89,30.78c4,10.8,13.31,24.56,13.31,35.66a21.64,21.64,0,0,1,4.8-.62v0a11.1,11.1,0,0,1,1.84.18A14,14,0,0,1,34,237.91a3.35,3.35,0,0,0,.9.18q8.22,1.52,17.18-3.43,12.45-9.14,22.74-5a24.12,24.12,0,0,1,7.22,4.92q13.36,9.55,29.28,3.56a32.67,32.67,0,0,1,9.46-4.53h.69a13.6,13.6,0,0,1,5.38-.21c7.21,2.25,13.69,7.8,21.33,1.15q8.84-10.17,22.22-6.54,15.22,3.88,21.23,1.36a10.33,10.33,0,0,1,7.32-3.29q5.59-1.91,4.65-3c-3.29-.68-3.89.14-7.34.43h-5.77c-.56,0-1.12-.08-1.68-.13q-18.74,1.54-45.72-15.27Q125.74,198.34,120,180.1q-2.52-14.29,3.5-25.41,8.13-21.59,3.82-36.76-9.75-33.86-46.53-46a23.09,23.09,0,0,0-2.35-.71C77.06,70.86,75.81,69.66,74.75,69.73Z" style="fill:#8bbe5c;fill-rule:evenodd"/><path d="M38.09,80.21C31,85.06,24.8,92,18.48,101.88q-16.22,31-14,68.91a126.67,126.67,0,0,0,6.89,30.78c4,10.8,13.31,24.56,13.31,35.66a21.64,21.64,0,0,1,4.8-.62v0a11.1,11.1,0,0,1,1.84.18A14,14,0,0,1,34,237.91a3.35,3.35,0,0,0,.9.18,21.51,21.51,0,0,0,4.24.35,21.93,21.93,0,0,1,9.48-2.1,35.54,35.54,0,0,0,3.46-1.68q12.45-9.14,22.74-5a24.12,24.12,0,0,1,7.22,4.92q13.36,9.55,29.28,3.56a32.67,32.67,0,0,1,9.46-4.53h.69a13.6,13.6,0,0,1,5.38-.21c3,.93,5.84,2.43,8.7,3.39a19.9,19.9,0,0,1,11.72-1.5c.3-.23.6-.47.91-.74l.05-.06c-14.15.15-26.31-4.68-27.63-18.61-10.23-9.95-16.76-15.52-20.58-27.68q-2.52-14.29,3.5-25.41,8.13-21.59,3.82-36.76Q97.63,92,60.84,79.87a23.08,23.08,0,0,0-2.35-.71c-1.39-.35-2.63-1.55-3.7-1.48a1.85,1.85,0,0,1-1.19.8A132.47,132.47,0,0,0,38.09,80.21Z" style="fill:#abcb56;fill-rule:evenodd"/><path d="M36.51,237.84c-.32,0-.81.3.14.5q7.44.76,15.46-3.68,12.45-9.14,22.74-5a24.12,24.12,0,0,1,7.22,4.92q13.36,9.55,29.28,3.56a32.67,32.67,0,0,1,9.46-4.53h.69a13.6,13.6,0,0,1,5.38-.21c7.21,2.25,13.69,7.8,21.33,1.15q8.84-10.17,22.22-6.54,12.36,3.15,18.65,2.08c.29-1.93-.19-3.29-1.63-3.22-27.51,1.28-59.3-33.21-51.82-8.46,1.09,3.62,3.44,7.08-.86,9.35-7.93,4.18-15.3-28.11-26-29-18.67-1.48-8.06,25.09-11.49,29.75-8.24,11.21-22.33-11-31.77-25.51-4.42-6.78-12.79-16-18.29-2.78C42.84,210.62,52.45,230.5,36.51,237.84Z" style="fill:#6b9f53;fill-rule:evenodd"/><path d="M62.88,10.2a5.1,5.1,0,1,0-5.1-5.1A5.11,5.11,0,0,0,62.88,10.2Z" style="fill:#201600;fill-rule:evenodd"/><circle cx="62.92" cy="5.11" r="4.36" style="fill:#89be5c"/><path d="M65.3,8.76a4.36,4.36,0,0,1-6-6,4.36,4.36,0,0,1,6,6Z" style="fill:#abcb56;fill-rule:evenodd"/><path d="M92.8,115.25c-2.09,2,.13,4.25,2.39,4.47q1.25-.12,1.09,1.49A26.92,26.92,0,0,1,92.1,131C104.32,123.38,99.85,110,92.8,115.25Z" style="fill:#201600;fill-rule:evenodd"/><path d="M88.63,167.95a6.38,6.38,0,1,0-6.38-6.38A6.39,6.39,0,0,0,88.63,167.95Z" style="fill:#50825f;fill-rule:evenodd"/><circle cx="109.49" cy="137.46" r="3.5" style="fill:#50825f"/><circle cx="119.27" cy="152.99" r="3.03" style="fill:#50825f"/><circle cx="127.84" cy="134.59" r="3.03" style="fill:#3b6648"/><path d="M127.84,131.55a3,3,0,0,1,.92.14,58.09,58.09,0,0,1-.6,5.91l-.31,0a3,3,0,0,1,0-6.07Z" style="fill:#50825f;fill-rule:evenodd"/><circle cx="121.1" cy="176.68" r="3.5" style="fill:#3b6648"/><path d="M120,180a3.5,3.5,0,0,1-.69-6.34A48,48,0,0,0,120,180Z" style="fill:#50825f;fill-rule:evenodd"/><path d="M133.15,113a12.34,12.34,0,0,1-12.53-21A63.31,63.31,0,0,1,133.15,113Z" style="fill:#3b6648;fill-rule:evenodd"/><path d="M126,113.76a12.35,12.35,0,0,1-8.94-17.05A64.85,64.85,0,0,1,126,113.76Z" style="fill:#50825f;fill-rule:evenodd"/><path d="M55.37,232.48a17.79,17.79,0,0,0,.83-14.14C46,194,59.14,191.17,63.94,204.7a77.74,77.74,0,0,0,10.58,24.86Q65.72,226.2,55.37,232.48Z" style="fill:#fff;fill-rule:evenodd"/><path d="M102,240.37q6.25-4.6,2.72-14.73c-6.81-12.54-7.09-19.18-1.34-21.76,12.08-3.17,9.47,17.67,21.93,29.21q-5.91-.21-13.93,5.08A35.14,35.14,0,0,1,102,240.37Z" style="fill:#fff;fill-rule:evenodd"/><path d="M162.12,227q-12.2-14-20.33-14.87c-14.17-3.33,9,13,3.3,24.31a12,12,0,0,0,1.84-1,27.53,27.53,0,0,1,4.53-4.14A19,19,0,0,1,162.12,227Z" style="fill:#fff;fill-rule:evenodd"/><path d="M56.19,232a16,16,0,0,0,1.2-13.62c-9.24-22.06,2.66-24.58,7-12.34a69.92,69.92,0,0,0,10.31,23.6Q66.18,226.27,56.19,232Z" style="fill:#3b6648;fill-rule:evenodd"/><path d="M102.19,240.35q7.07-4.21,3.51-14.44c-6.38-11.76-6.64-18-1.25-20.39,11.39-3,8.85,16.8,20.76,27.57q-5.88-.18-13.85,5.08A35.25,35.25,0,0,1,102.19,240.35Z" style="fill:#3b6648;fill-rule:evenodd"/><path d="M162,227q-10.91-12.55-18.15-13.36c-12.77-3,8.8,12.14,2.57,22.09a13,13,0,0,0,1.78-1.31Q154.11,227.62,162,227Z" style="fill:#3b6648;fill-rule:evenodd"/><circle cx="25.03" cy="109.49" r="7.13" style="fill:#201600"/><circle cx="25.22" cy="109.48" r="6.26" style="fill:#fff"/><circle cx="26.21" cy="108.66" r="2.59" style="fill:#201600"/><circle cx="26.67" cy="108.16" r="1.06" style="fill:#fff"/><circle cx="50.2" cy="108.84" r="21.53" style="fill:#201600"/><circle cx="49.92" cy="108.83" r="20" style="fill:#3b6648"/><path d="M49.92,88.84a20,20,0,0,1,19.26,14.6q0,.56,0,1.13A21.4,21.4,0,0,1,34,120.91,20,20,0,0,1,49.92,88.84Z" style="fill:#fff;fill-rule:evenodd"/><circle cx="47.8" cy="106.59" r="3.8" style="fill:#201600"/><circle cx="47.58" cy="105.7" r="1.52" style="fill:#fff"/><circle cx="97.16" cy="184.94" r="1.8" style="fill:#50825f"/><circle cx="104.37" cy="179.9" r="2.62" style="fill:#50825f"/><circle cx="104.5" cy="191.46" r="1.16" style="fill:#50825f"/><circle cx="120.72" cy="120.81" r="2.61" style="fill:#50825f"/><circle cx="108.91" cy="91.84" r="5.96" style="fill:#466b72"/><path d="M114.6,93.6a6,6,0,1,1-7.46-7.46A62.18,62.18,0,0,1,114.6,93.6Z" style="fill:#50825f;fill-rule:evenodd"/><path d="M7.78,137.07q-5.3,33.2,2.78,55.77c.86.91,2.25.19,1.48-1.51q-7-25.4-2.08-53.6C10.53,134.88,8.21,134.61,7.78,137.07Z" style="fill:#fff;fill-rule:evenodd"/><path d="M59.42,73.41c-7.28,1.14-12.81,3.27-16.86,6.08-1.43,1.46-.09,2.62,1.59,1.87A55.14,55.14,0,0,1,61.37,75.7C65.56,75,64.83,72.56,59.42,73.41Z" style="fill:#fff;fill-rule:evenodd"/><path d="M39.36,81.32c-1.68,0-4.36,1.58-4.06,3.36s4-.67,4.77-1.65S40.69,81.36,39.36,81.32Z" style="fill:#fff;fill-rule:evenodd"/><circle cx="61.23" cy="5.38" r="2.31" style="fill:#fff"/><ellipse cx="105.85" cy="186.68" rx="0.63" ry="0.59" style="fill:#50825f"/><ellipse cx="108.55" cy="185.75" rx="0.41" ry="0.39" style="fill:#50825f"/></g></g></svg>