<svg xmlns="http://www.w3.org/2000/svg" viewBox="0 0 276.83 226.36"><title>pers5</title><g id="Слой_2" data-name="Слой 2"><g id="_лой_1" data-name="—лой 1"><path d="M72.2,98.9c-30.14,1.76-10-48-20.47-68.56Q45,15.25,25.81,7.05,50.73,22.13,48,45.85a157.88,157.88,0,0,1-4,25.59A81.34,81.34,0,0,0,41.8,91.9C24.59,82.28,3.14,83.44,6.25,107.12q2.11,10.46-4.18,13-3.45.12-1.15,1.72,5,.79,8.69-3.85A16,16,0,0,0,13,108c-.64-15.74,13.73-15.77,20.5-4q3.23,19,10.25,21a15.2,15.2,0,0,0,7.41,1.33c-14.29,22.21-21.61,45.94-10.33,70.84q3.56,7.31-.82,10.17-3.37,2.78-3.61,5.58-1.52,9.58,9,7.05,4.42-2.26,7.22.49,4.33,7.4,11.32-.33,9.14-5.59,13.78,3.94,7.53,6.59,13.78-5.74,3-6.53,9.19-.16,12.87,12.46,23.62.66,5.68-8.16,13.94-.82,9.17,10.82,16.08.66,9.43-9.76,17.72-.16,5.69,9.35,13.94-2.62,4.71-8.69,15.42-.66,6.73,5.46,14.93-2.79,1.73-2.2,5.58.49a7.19,7.19,0,0,0,5.25,1q5.58-3.38,0-7.22c-8.16-4.59-6.39-11.78-13.12-19a90.23,90.23,0,0,1-7.8-11.37c11.84,5,16.88-12.32,42-9,6.67,1.39,11.29,4.53,11.65,10,.11,4.5-4.49,8.3-13.29,14.52q-.93,1.36.49,1.39,5.52-2.06,13.12-9.35c18.55-24.51-18.48-30.51-39-25.26-12,2.82-19.18-1.69-21.11-11.61.07-16.72,42.61,12,43.4-43.72.08-5.94-.38-10.26-.36-15.85,0-8,.11-15.35,1.74-22.06C252.12,44,280.44,49,272.15,61.55c-1.09,5.32,4.64.24,4.68-3.89a8.71,8.71,0,0,0-2.15-6.19c-3.32-3.64-8.79-3.64-13.35-3.29-40.5,3.12-17.91,77.67-49.22,78.5q-10.46-1.27-8.86-21.16,3.2-29.89-14.44-58.4C165.81,7.15,77.07-27.83,68,32.31q.3,5.41,3.28,1A56.68,56.68,0,0,1,77.07,18C96.59-9,135.9,6.81,120.7,42.15,110.08,59.2,90.14,78.24,72.2,98.9Z" style="fill:#201600;fill-rule:evenodd"/><path d="M45.13,125q-8.39-3.06-10.91-21-5.64-10.7-15.62-8.74-6.22,2.11-6.52,11a15,15,0,0,1-.66,7q-3.34,7.95-9.35,8.08-1.88-.31.16-.75,1.91-.13,3.54-2.72,2.52-2.38,1-10.84a28.1,28.1,0,0,1,.7-10.67,12.75,12.75,0,0,1,10.88-8.49q10.24-2.36,23.55,5.53,1.16,15.35,11.86,21A26.36,26.36,0,0,0,50,117.53h0l-.4.42-.06.07-.38.42-.06.07-.34.4-.09.1-.33.41-.1.12-.28.37-.16.21-.21.29-.17.25-.2.29-.16.25-.19.3-.15.26-.17.29-.17.29-.14.25-.17.33-.12.24-.17.34-.12.25-.16.34-.12.27-.15.36-.09.24Z" style="fill:#3b6648;fill-rule:evenodd"/><path d="M199.95,150a2.45,2.45,0,0,1,.25-.38q3.11,13.31,21.2,10.09,15.17-4.09,32.68.86,8.82,3.76,10.11,10.14c.75,3.71-2,10.15-4.66,12.7q-7.54,7.07-12,9-1,.19-.37-.39c31.51-17.65,1.24-34.71-21.84-22.06-6.87,3.15-12.81,8.27-19.77,5.16A44.81,44.81,0,0,1,199.95,150Z" style="fill:#3b6648;fill-rule:evenodd"/><path d="M54,42.12q.55,14.6-.08,24.36a103.63,103.63,0,0,0,.66,18.74q2.64,15.66,16.89,14.56c-4.37,5.06-8.61,10.22-12.56,15.47q-16.22-4.61-16-27.4a70.17,70.17,0,0,1,3-19.52c4.08-19.8,7.8-40.83-10.25-55.08Q52.35,24.9,54,42.12Z" style="fill:#3b6648;fill-rule:evenodd"/><path d="M58.89,115.24q-16.22-4.61-16-27.4a70.17,70.17,0,0,1,3-19.52c2.4-11.66,4.68-23.74,2.46-34.61a35.38,35.38,0,0,1,3.51,12.46q.55,14.6-.08,24.36a103.68,103.68,0,0,0,.66,18.74q2.51,14.9,15.52,14.63C64.8,107.63,61.77,111.41,58.89,115.24Z" style="fill:#99c45a;fill-rule:evenodd"/><path d="M44.66,73q.53-2.29,1.2-4.66c2.36-11.48,4.61-23.38,2.56-34.12l0-.38a35.39,35.39,0,0,1,3.46,12.36q.55,14.6-.08,24.36a103.68,103.68,0,0,0,.66,18.74q2.51,14.9,15.52,14.63-3.34,4-6.52,8Q44.89,107.69,44.1,84.42A64,64,0,0,1,44.66,73Z" style="fill:#6b9f53;fill-rule:evenodd"/><path d="M82,8.11Q95.63-1.67,116.16,2q47.26,10.11,71.27,45.77,17.22,26.56,15,56.51Q199.22,127.82,212,128c11.58,1.52,16.55-10.59,19.76-24.56,2.93-17,4.45-23.76,4.43-23.67q3.94-20.59,14.6-27.39c5.1-3.31,11.33-4.62,18.58-3.2,4.34,1.26,6.69,3.88,7,7.93s-3.72,6.6-3.28,5.19a2.44,2.44,0,0,1,.29-1.56c6.14-11.25-12.56-13.41-21.69-6.44q-8.82,7.16-9.06,21.73c-1.89,24.91,7.35,62.5-31.13,63.4q-13-.87-12.3,8.53-1.69,23.52,14.11,40.6A34.5,34.5,0,0,1,220,200.73a13.41,13.41,0,0,0,6.07,6.4q4.08,2.78,1.64,4.67t-4.35.41q-6.09-3.69-8.37.25-7.78,6-11.81,2.21-13.31-9.28-17.8.33-6.28,8.39-9.76,5.58-12.2-15.81-22.88-2.05-5.78,7.53-13-.66-9.51-10.24-17.63,1.48-8.62,7.34-17.47.41-11.69-13.34-16,.82Q83.56,228,79,223q-7.24-11-16.24-3.69-6.3,5.8-8.78.33-3.13-4-8-1.23-8,2.18-8-2.38-.64-5.68,3.86-7.63a9.35,9.35,0,0,0,.9-9.68q-12.55-27.84-.16-53.64,10.34-24.91,45.19-61.59l23-26.08Q131.32,34.93,123,15.78C110.2-7.36,77,2.86,71.05,30.42q-.64,4-1.48,3.44-1.32-.19-.33-3.9Q72.83,14.76,82,8.11Z" style="fill:#3b6648;fill-rule:evenodd"/><path d="M82.2,8a37.69,37.69,0,0,1,17-6.57,59.16,59.16,0,0,1,12.49.95q47.26,10.11,71.27,45.77,17.22,26.56,15,56.51-3.22,23.58,9.52,23.79a13,13,0,0,0,5.21-.31c11.07.94,15.9-11,19.05-24.63,2.93-17,4.45-23.76,4.43-23.67a76,76,0,0,1,2.47-9.68,41.25,41.25,0,0,0-.57,6.33,86.9,86.9,0,0,0,.41,17.84c-.32,22.51-3.31,42-26.17,45.15l-.87,0a22.58,22.58,0,0,0-6.21.31q-11.28-.16-10.6,8.6-1.69,23.52,14.11,40.6a34.52,34.52,0,0,1,6.77,12.14,13.41,13.41,0,0,0,6.07,6.4q4,2.75,1.69,4.64-4.83-2.89-7.23-.93-3.83-1.31-5.53,1.62a20.85,20.85,0,0,1-5.18,3.09,5.27,5.27,0,0,1-2.13-1.26q-8.79-6.13-13.74-4-5.87-1-8.56,4.73a22.65,22.65,0,0,1-5.11,5.3l-.15-.11Q167.49,210,160,212.64q-6.11-1-11.79,6.27a10.34,10.34,0,0,1-3.22,2.92,13,13,0,0,1-5.32-4q-6-6.43-11.4-4.2-5.64-1.28-10.73,6.06A16,16,0,0,1,111.8,223a14.73,14.73,0,0,1-7.2-3.28q-7.61-8.69-12.1-5.71-5.67-2-8.39,6.91a13.26,13.26,0,0,1-3.28,3.56A7.12,7.12,0,0,1,79,223q-5.61-8.5-12.28-6-4-.86-8.46,2.74a16.53,16.53,0,0,1-2.68,2.06A5.05,5.05,0,0,1,54,219.68Q51.15,216,46.85,218q-2.36-.88-5.4.84l-.92.24a2.74,2.74,0,0,1-2.54-3q-.64-5.68,3.86-7.63a9.35,9.35,0,0,0,.9-9.68q-12.55-27.84-.16-53.64,10.34-24.91,45.19-61.59l23-26.08Q131.32,34.93,123,15.78C114.8,1,95.55-.39,82.2,8Z" style="fill:#6b9f53;fill-rule:evenodd"/><path d="M104.34,1.46a64.52,64.52,0,0,1,7.32.88q47.26,10.11,71.27,45.77,17.22,26.56,15,56.51-3.22,23.58,9.52,23.79a13,13,0,0,0,5.21-.31,14.2,14.2,0,0,0,1.51,0,12.35,12.35,0,0,0,1.5.11c11.58,1.52,16.55-10.59,19.76-24.56,1-5.9,1.87-10.57,2.54-14.14q.17,2.39.47,4.73c-.32,22.51-3.31,42-26.17,45.15l-.87,0a22.58,22.58,0,0,0-6.21.31q-11.28-.16-10.6,8.6-1.69,23.52,14.11,40.6a34.52,34.52,0,0,1,6.77,12.14,13.41,13.41,0,0,0,6.07,6.4q2.9,2,2.51,3.5a5.08,5.08,0,0,0-3.36-.11q-3-1.08-4.69.32-3.83-1.31-5.53,1.62a25.47,25.47,0,0,1-3.38,2.25l-.21-.19q-7.47-5.21-12.16-4.47a8.28,8.28,0,0,0-5.31.21q-5.87-1-8.56,4.73a32.32,32.32,0,0,1-3,3.58q-6.41-7.39-12.39-6.5a9,9,0,0,0-5.41.18q-6.11-1-11.79,6.27a12.64,12.64,0,0,1-1.82,1.95,17.55,17.55,0,0,1-3-2.75q-5.19-5.59-10-4.64a7.35,7.35,0,0,0-5.17.2q-5.64-1.28-10.73,6.06a17.16,17.16,0,0,1-4.64,2.91,17,17,0,0,1-4.61-2.65q-6.77-7.73-11.06-6.23a4.88,4.88,0,0,0-4.77.28q-5.67-2-8.39,6.91a18.52,18.52,0,0,1-1.56,2q-4.88-7.21-10.56-6.17a7.86,7.86,0,0,0-5.25.18q-4-.86-8.46,2.74l-.44.4-.1-.22a5.23,5.23,0,0,0-6-2.13,5.57,5.57,0,0,0-4.92.2,5.73,5.73,0,0,0-4.47.37,3,3,0,0,1-.65-2.05q-.64-5.68,3.85-7.63a9.35,9.35,0,0,0,.9-9.68q-12.55-27.84-.16-53.64,10.34-24.91,45.19-61.6l23-26.08Q135.05,35.17,126.7,16c-4.93-8.94-12.92-12.9-21.21-12.8C106.15,2.53,97.12,3.27,104.34,1.46Z" style="fill:#6b9f53;fill-rule:evenodd"/><path d="M104.34,1.46a64.3,64.3,0,0,1,7.32.88,131.88,131.88,0,0,1,30.11,10.15c30.75,19.78,47.37,53.9,43.29,91.15-1.94,36.89,46.33,33.88,50.39.07,1-5.9,1.87-10.57,2.54-14.14q.17,2.39.47,4.73c-.26,18.07-3.28,44.61-27,45.18-44.44-3-33.85,37.34-14.31,58.47a38.58,38.58,0,0,1,7.56,13.57,19.57,19.57,0,0,0,2.09,3.31q-7.37-5.1-12-4.37a8.27,8.27,0,0,0-5.31.21q-5.87-1-8.56,4.73a32.32,32.32,0,0,1-3,3.58q-6.41-7.39-12.39-6.5a9,9,0,0,0-5.41.18q-6.11-1-11.79,6.27a12.62,12.62,0,0,1-1.82,1.95,17.57,17.57,0,0,1-3-2.75q-5.19-5.59-10-4.64a7.35,7.35,0,0,0-5.17.2q-5.64-1.28-10.73,6.06a17.16,17.16,0,0,1-4.64,2.91,17,17,0,0,1-4.61-2.65q-6.77-7.73-11.06-6.23a4.88,4.88,0,0,0-4.77.28q-5.67-2-8.39,6.91a18.45,18.45,0,0,1-1.56,2q-4.88-7.21-10.56-6.17a7.86,7.86,0,0,0-5.25.18q-4-.86-8.46,2.74l-.44.4-.1-.22a5.23,5.23,0,0,0-6-2.13,5.57,5.57,0,0,0-4.92.2,5.73,5.73,0,0,0-4.47.37,3,3,0,0,1-.65-2.05q-.64-5.68,3.86-7.63a9.35,9.35,0,0,0,.9-9.68q-12.55-27.84-.16-53.64,10.34-24.91,45.19-61.6l23-26.08Q135.05,35.17,126.7,16c-4.93-8.94-12.92-12.9-21.21-12.8l-.95-.11c-8.07-.38-11.1-.59-1-1.55Z" style="fill:#99c45a;fill-rule:evenodd"/><path d="M86.09,119.81q4.25-2.4,3.38-2.42,8.84-12.47,21.3-12.2,9.41.4,22.55,8.15,12.34,8.7,15.72,10.73c-13-7.11-20.51-12.1-25-13.08C101.86,104.34,85.85,121.92,86.09,119.81Z" style="fill:#6b9f53;fill-rule:evenodd"/><path d="M126.72,70a49.74,49.74,0,0,0,14.75-18c26-11.74,45.77,15.76,29.69,36.09C159,103.8,126.62,101.58,126.72,70Z" style="fill:#6b9f53;fill-rule:evenodd"/><path d="M64.78,145.62c-.54.73-3.41,13.29-7.38,20.18-1,1.79-1.62,5.22-1.85,9,.88,6.44,3.14,12.56,6.72,16.38,6.6,7,5.7,7,17.39,9.81,7.12,1.72,15.7-1.18,21.54,2.65,5.5,3.61,19.54-.08,25.32-2.76,7.76-3.59,16.67-3.94,23.57-8.78,6-4.23,9-8.36,13-14.38.31-.46.31-3.55.4-7-.92-4.57-3.41-9-9.46-17.72-4.57-6.61-5.56-15.22-13.45-18.86-4.37-2-.86-1.71-7.82-3C110.57,127.29,80.4,124.47,64.78,145.62Z" style="fill:#b2d186;fill-rule:evenodd"/><path d="M121.79,89a10.3,10.3,0,1,0-10.3-10.3A10.32,10.32,0,0,0,121.79,89Z" style="fill:#6b9f53;fill-rule:evenodd"/><path d="M120.94,87.12a9.56,9.56,0,1,0-9.56-9.56A9.57,9.57,0,0,0,120.94,87.12Z" style="fill:#201600;fill-rule:evenodd"/><path d="M121,85.89a8.37,8.37,0,1,0-8.37-8.37A8.38,8.38,0,0,0,121,85.89Z" style="fill:#fff;fill-rule:evenodd"/><path d="M105.55,104.35q-5.35,5.2-10.46,6.19c-9.33-12.37-.44-24.07,7.67-19.07q2.39,1.63,1.39,5.33Q102.69,101.62,105.55,104.35Z" style="fill:#3b6648;fill-rule:evenodd"/><path d="M102,106q-5.36,5.2-10.46,6.19c-9.33-12.37-.44-24.07,7.67-19.07q2.39,1.63,1.39,5.33Q99.18,103.29,102,106Z" style="fill:#201600;fill-rule:evenodd"/><path d="M101.33,105.81q-4.9,4.76-9.57,5.67C83.33,100,92.3,88.26,99,93.9a3.45,3.45,0,0,1,1.23,1.62,5.63,5.63,0,0,1-.16,3.38Q98.72,103.31,101.33,105.81Z" style="fill:#fff;fill-rule:evenodd"/><path d="M170.72,125.49c-3.41,2.42-13.43,2.75-20.43-1.32,16.74,5,11.26-27.1,22.31-24.78q6.16,1.54,6.23,10.74a9.82,9.82,0,0,1-4.59,7.79C170.51,121,169.51,123.68,170.72,125.49Z" style="fill:#3b6648;fill-rule:evenodd"/><path d="M167,127q-9.7,1.82-19.11-3.86c16.74,5,10.2-24.38,21.24-22.06q6.16,1.54,6.23,10.74a9.82,9.82,0,0,1-4.59,7.79Q165.13,124.27,167,127Z" style="fill:#201600;fill-rule:evenodd"/><path d="M166.38,127.1q-9.25,1.1-15.83-2.87,6.14.82,9.23-6.15l3.77-12.1q1.89-5.31,6.56-3.94c3.32,2.06,5,6,4.67,10.91-1.25,5-3.78,4.95-6.62,8.54C166.07,124.14,165.42,126,166.38,127.1Z" style="fill:#fff;fill-rule:evenodd"/><path d="M87.56,114.06q10.61-10.48,24-11.24c13,.44,24.68,11.7,35.19,19.11,17.76,13.12,39.94-1.88,35.6-14.35q-2.54-3-1.15-3.77,3-2.47,3.77-.08c1.06,21.09-21.24,30.82-38.71,19-17.76-12.46-38.56-26.46-56.18-4.59C85,125.6,83.58,118.39,87.56,114.06Z" style="fill:#201600;fill-rule:evenodd"/><path d="M62.81,112.44q1.29-1.91.33-2.71c-17.18,5.95-23.5,18.53-17.47,38.06a95.24,95.24,0,0,0,31.86,41.3c2.77,1.29,3.63.43,1.85-2.34Q41.09,147.91,62.81,112.44Z" style="fill:#201600;fill-rule:evenodd"/><path d="M60.31,111.78q2.5-.76,1.72.08c-18.4,27.68-4,54.5,17.26,75.5q1,2.14-1,1.11C58.22,175.77,25.18,128.15,60.31,111.78Z" style="fill:#99c45a;fill-rule:evenodd"/><path d="M60.88,113.68c-16.61,27-2.4,53.15,18.42,73.68q.5,1.05.26,1.34C59.81,175.25,29.4,130.52,60.88,113.68Z" style="fill:#3b6648;fill-rule:evenodd"/><path d="M77.77,187.41c-19-14.29-45.52-54.49-19.84-72C43.32,141.73,57.32,167,77.59,187Q77.69,187.23,77.77,187.41Z" style="fill:#6b9f53;fill-rule:evenodd"/><path d="M155.16,142q-2.95,2.72-.33,4.18a4.21,4.21,0,0,0,3.44-1.8q1.82-1.25,2,2.05c-.26,20.2-47.67,23.15-48.8,51.83q.14,2.47,1.56,0c7.5-28,86.59-38.76,65.45-60.78q-2.2-.55-1.39,2.05a4.86,4.86,0,0,1,2.13,5.74c-8.33,6.17-14.18,7-16.08.49C162.05,142.2,158.07,139.16,155.16,142Z" style="fill:#201600;fill-rule:evenodd"/><path d="M177.31,139.58q-17.92-9.2-22.56,1.15,4.3-.66,5.37,1.52,2.72,3.3-.29,10.37a29.8,29.8,0,0,1-4.18,5.13,28.78,28.78,0,0,1-5.49,4.4c-13.76,7.79-36,17.79-38.11,35.54q-.22,1.09.49,0,2.08-7,9.41-13.27,8.71-7.85,27.58-16.47,9.4-4.63,15.17-7.83Q188.15,146.77,177.31,139.58Z" style="fill:#3b6648;fill-rule:evenodd"/><path d="M154.63,139.85c.31,0-.72,1.14-.42,1.27s2.43-.46,2.67-.32c1.73,0,2.72.37,3.26,1.45q2.72,3.3-.29,10.37a29.79,29.79,0,0,1-4.18,5.13,30.55,30.55,0,0,1-5.67,4.47c-11.11,6.29-27.53,13.75-34.66,26a39.64,39.64,0,0,1,4.31-4.28q8.71-7.85,27.58-16.46,9.4-4.63,15.17-7.83c15.62-8.93,20-17.12,12.77-21.91C169.36,133.31,158.73,132,154.63,139.85Z" style="fill:#99c45a;fill-rule:evenodd"/><path d="M188.26,170.44a6.56,6.56,0,1,0-6.56-6.56A6.57,6.57,0,0,0,188.26,170.44Z" style="fill:#3b6648;fill-rule:evenodd"/><circle cx="178.22" cy="178.41" r="3.69" style="fill:#6b9f53"/><circle cx="201.43" cy="192.28" r="3.12" style="fill:#3b6648"/><circle cx="202.25" cy="183.75" r="0.98" style="fill:#3b6648"/><circle cx="186.66" cy="183.25" r="1.97" style="fill:#3b6648"/><path d="M187.67,184.95a2,2,0,1,1-1.85-3.47Q186.69,183.23,187.67,184.95Z" style="fill:#6b9f53;fill-rule:evenodd"/><path d="M126.78,69.12A45.89,45.89,0,0,0,140.4,52.56c23.95-10.83,42.24,14.54,27.39,33.3C156.61,100.31,126.69,98.26,126.78,69.12Z" style="fill:#201600;fill-rule:evenodd"/><path d="M128.11,69.16A43.5,43.5,0,0,0,141,53.46c22.7-10.27,40,13.79,26,31.56C156.37,98.72,128,96.78,128.11,69.16Z" style="fill:#3b6648;fill-rule:evenodd"/><path d="M128.11,69.16A43.51,43.51,0,0,0,141,53.46c9-4.07,17.16-2.74,22.85,1.45,5.45,7.18,6.22,17.86-1,27-6,7.81-17.66,10.69-26.85,6.92C131.32,84.94,128.08,78.53,128.11,69.16Z" style="fill:#fff;fill-rule:evenodd"/><path d="M129.82,68.88q-4.72,1.72-2.38-1.8,8.68-7.68,9.68-18.13,4.73,2.54,5.41,6Q136.52,66.16,129.82,68.88Z" style="fill:#201600;fill-rule:evenodd"/><circle cx="149.37" cy="74.79" r="3.52" style="fill:#201600"/><circle cx="124.72" cy="78.84" r="2.29" transform="matrix(0.05, -1, 1, 0.05, 39.44, 199.24)" style="fill:#201600"/><circle cx="148.91" cy="74.49" r="1.64" style="fill:#fff"/><circle cx="125" cy="79.05" r="1.08" transform="translate(39.51 199.74) rotate(-87)" style="fill:#fff"/><path d="M126.44,70.06q1.49-.75.41-1.52-5.74,0-7.79-3.08-1.53.07-1.52,1.85Q119.88,71,126.44,70.06Z" style="fill:#201600;fill-rule:evenodd"/><path d="M193.72,61.87a5.7,5.7,0,0,1,1.48.2q1.6,3.65,2.86,7.36a5.38,5.38,0,0,1-4.35,2.12,4.85,4.85,0,1,1,0-9.68Z" style="fill:#214931;fill-rule:evenodd"/><path d="M194.13,71.53h-.41a5.06,5.06,0,0,1-5.25-4.84,4.75,4.75,0,0,1,2.34-4A90.79,90.79,0,0,1,194.13,71.53Z" style="fill:#3b6648;fill-rule:evenodd"/><circle cx="188.14" cy="75.64" r="2.62" style="fill:#3b6648"/><circle cx="195.36" cy="77.61" r="1.8" style="fill:#214931"/><path d="M195.36,75.81h0q.44,1.7.82,3.41a1.8,1.8,0,1,1-.83-3.41Z" style="fill:#3b6648;fill-rule:evenodd"/><path d="M93.24,80.39q-30.36,33-35.2,44c-.53,1.87.22,2,1,1.47q11.42-18.75,36.07-44.11C99.18,77.56,97.86,75.36,93.24,80.39Z" style="fill:#fff;fill-rule:evenodd"/><path d="M40.49,159q-2.78,17.58.32,22.21c.76.72,1.41.59,1.72.24q-2.92-8.66.26-22.46C43.3,156.7,40.91,156.29,40.49,159Z" style="fill:#fff;fill-rule:evenodd"/><ellipse cx="101.18" cy="73.13" rx="2.94" ry="1.47" transform="translate(-21.04 98.57) rotate(-47.62)" style="fill:#fff"/><path d="M50.82,147.66c.67,1.43.6,2.15-.16,2-4.82-1.23-6.11-20.17-2.18-24.17q1.76-1.79,1.16,1.27Q46.48,138.7,50.82,147.66Z" style="fill:#fff;fill-rule:evenodd"/><path d="M157.13,159.93q-3.68,1.86-1.25-.37,9.82-10.3,5.07-17.85-.63-2.12,1.32-.81Q168.29,147.79,157.13,159.93Z" style="fill:#fff;fill-rule:evenodd"/><path d="M156.95,24.16q.69-.47,1.7.53,9.29,8.82,13.41,15.59.76,1.33-.4,2a2.41,2.41,0,0,1-2.7-1,43,43,0,0,0-11.24-15.14C156.62,25.47,156,25.12,156.95,24.16Z" style="fill:#fff;fill-rule:evenodd"/><path d="M173.16,42.89c-.59.1-1.51.09-1.75.76-.32.94-.2.77.21,1.72.49,1.13.52,1.43,1.92,1.52.09,0,1.4-.54,1.14-1.14C174.54,45.42,173.87,42.76,173.16,42.89Z" style="fill:#fff;fill-rule:evenodd"/></g></g></svg>