<svg xmlns="http://www.w3.org/2000/svg" viewBox="0 0 202.25 308.63"><title>pers6</title><g id="Слой_2" data-name="Слой 2"><g id="_лой_1" data-name="—лой 1"><path d="M130.92,14.37a18.89,18.89,0,0,0-8.19,1c-7.44,3.4-10.37,11.18-7.88,17.54q-11,17.78-12.92,46.69-.63,6.45-1.58,21.27c-.79,28.83-39.71,23.47-35.05-3.47C70.89,53,94,57.08,107.23,25.55c.47-.21.94-.43,1.42-.68,9.18-6.16,7.47-19.12-2.76-23.79a18.88,18.88,0,0,0-8.19-1c-18.31,1.67-17.54,19-7.27,25.28q4.69,3.92,0,11.48c-9.2,15.54-22.56,22.92-27.53,39.94q-7.22,27.6-15.44,38.6a9.06,9.06,0,0,0-2.13,6.46q.46,1.36-1.58,4.65-9.66,10.8-16.31,30.88A24.36,24.36,0,0,1,24,165.44c-3.59,4.69-5.68,26-4.61,33q2.35,16.71-2.13,28.36a11.16,11.16,0,0,0-2,6.7q.22,2.19-1.1,2.84-4.77,1.47-4.57,8.9-1.15,4.34,1.5,6.93-6,2.78-10.32,23Q-2,283.67,5,293.33q10.5,10.92,27.1,8.9,8.12-1,12.29-1.65a41.41,41.41,0,0,1,20.24,2.6q19.65,8.81,29.93,3.39,24.55-13.59,45.77-7.8,15.27,3.31,22.13-3.31,5.17-5.21,21-.87,22.39,4.73,18.12-6.3-7.54-13-20.17-15.91-12.71-4.37-15.12-8.82.68-10.27-8.9-16.86,2.24-3.42-2.91-6.54-16.5-8.88-15.36-21,5.56-6-1.1-12.05-13.85-20.76-13.55-27.73,1.7-15.7.16-21.82c-3-20.79,3.45-19.08-8.51-42.93Q111,106.2,110,83c-.53-18.48,4.19-34.29,20.91-41.16C147.37,41.07,152.93,16.38,130.92,14.37Z" style="fill:#201600;fill-rule:evenodd"/><path d="M12.87,241.44c.31,2.46,3.18,5.38,5.71,5.84,2.72.5,12.44.48,13.85,3.09,2.69,5-.69,5,8.64,4.68.88,0,6.34-1.86,8.47-2.21a18.43,18.43,0,0,1,3.35-.55c5.49-.27,4.93-.56,10.33.52,4.7.94,5.57,1.05,3,1.08a26.37,26.37,0,0,0-16.7,0c-6.42,2.06-15.41,5.15-17.74-.54-4.42-5.86-14.92-3.9-19.53-6.92a8.06,8.06,0,0,1,.44-1.68l0-1.5a9.91,9.91,0,0,1,.19-1.85ZM105.21,26.36a17.73,17.73,0,0,1-12.16.24,8.65,8.65,0,0,1-.31,8.25,66.65,66.65,0,0,1-10.91,15A162.88,162.88,0,0,0,71.39,62.5a47.37,47.37,0,0,0-7.48,14.3Q62.38,83,60,90.14a96.46,96.46,0,0,1-8.51,20.72A44.39,44.39,0,0,1,48.92,115a8.6,8.6,0,0,0-2.5,7.11A5.45,5.45,0,0,1,45,126.69c-12.4,14.69-14.34,26.36-17.65,34.82-1.44,3.23-2.7,4.25-3.78,7.9a88.28,88.28,0,0,0-3.19,25.34q2.92,21.74-1.58,31.7a9.34,9.34,0,0,0-2.09,7.88A2.19,2.19,0,0,1,15.23,237q-4.43,1.46-4.49,6.62,0,1.5,0,1.5-1.59,4.24,1.81,6.62a11.85,11.85,0,0,0,7.52,3,17.4,17.4,0,0,1,9.22,3.7c13,8,20.63-9.82,38.28-2.44a71.83,71.83,0,0,1,14.49,7.25q7.78,5.68,14.18,5.75a25.75,25.75,0,0,1-15-5.2q-9.69-5.4-15.68-6.54A26.42,26.42,0,0,0,51.16,257l-1.8.56a21.64,21.64,0,0,0-4,1.88c-10.48,4.94-14.42.66-19.81-1.67l-1.86-.55a14.66,14.66,0,0,0-2.28,1.15c-3.28,2.21-4,5.12-5.31,8.67-1.08,3,1.85,3.52-2.82,9-7.91,9.33-.33,20.16,10,24.05q-.75,0-1.51-.14A44,44,0,0,1,11,294.84q-8.43-8.93-6.62-18.59l3.31-13.79c1.24-3.9,3.06-7.21,4.72-8.83A1.81,1.81,0,0,1,12,253c-2,.56-4.63,4.68-6.26,9.85L2.43,276.63Q.61,286.29,9,295.22c7.77,5,15.6,7.46,23.59,6,13.58-2.62,23.06-2.77,29.22,0,11.43,4.68,20,6.22,24.69,5.63,3.9-.35,6.77-.6,9.43-2.24,17.07-9,32.12-10.77,49.33-6.42,6.75.83,12.66-.09,15.52-2.6,4.51-4.62,9.93-5.09,18.87-2.68,12.78,3.31,20.58,3.13,21.35-.43,1.58-2-1.13-7.57-8.9-14.38-7.82-5.74-17.42-4.64-26.43-13.71-3,7.89-6.75,13.48-11.74,14.73q-4.43.76-11.5-.71a26.34,26.34,0,0,0-16.46,1.5c-13.55,4.71-16.06,15.25-35,10.71a206.7,206.7,0,0,0-22.76-9.45q-14.11-5-25.6,2.36,10.78-9.23,25.21-4.1c8.57,2.42,15.31,5.85,22.18,9.52,22.43,8,26.5-17,51.91-12.13q16.16,5.14,22.53-12.21c1.37-7.12-.76-12.7-7.25-15.52q-5,5.63-13.63,5.2-18.94-.76-22.21,5-5.79,9.82-14.89,8.35,10.19-1.16,13.86-9.77,3.79-4.63,13.47-5c15.26.66,23.23-1.95,22.73-8.39.12-1-1.18-2.31-2.72-3.35q-13.91-7.43-15.71-17.49-.67-3.62-2.64-2.25-10.82,6.13-19,4.14-12-2.29-18.83,3-7.65,5-19,1.18-19.43-8.59-36.15-.16,17-9.16,36-1.26c7.2,2.6,13.05,2.81,19-.95,4.4-3.35,11.15-4.25,19.61-3A26.68,26.68,0,0,0,140,216.24c1.62-1.87,0-5-3-8.43-2.94-4.32-14.21-23.49-14.18-28.36,1.5-3.3.12-1.81-.55-.59a23,23,0,0,1-13.08,7.6c7.73-2.83,13.3-7.61,15-12.84a39.58,39.58,0,0,0-.2-14,72.06,72.06,0,0,1-.95-15.75c.24-9-1.61-17.43-5.63-24.18-2.36-5.41-3.94-8.15-3.94-8.15-2.69-8.34-4-17.86-4.29-28.79-.58-21.1,5.52-34.66,18.87-41A23.26,23.26,0,0,1,120,39.18a13.54,13.54,0,0,1-4.79-5.47q-10.61,18.14-12.71,44.88l-1.42,22.13q-.91,13.9-10.16,18.2a18.7,18.7,0,0,1-15,.79q-6.92-2.45-9.65-8.15a23,23,0,0,1-2-14.49q2.14-16.49,8.23-28a67.92,67.92,0,0,1,11.07-14Q93.94,44.39,96.92,40.15A54.21,54.21,0,0,0,105.21,26.36Z" style="fill:#50825f;fill-rule:evenodd"/><path d="M12.87,252l-.29-.25q-3.4-2.38-1.81-6.62l0-.9,1.46,2A8.09,8.09,0,0,0,12.87,252Z" style="fill:#9c5d93;fill-rule:evenodd"/><path d="M100.82,27.41a52.63,52.63,0,0,1-7.16,11.26q-3,4.24-13.47,14.93a67.94,67.94,0,0,0-11.07,14Q63,79.09,60.9,95.58a23,23,0,0,0,2,14.49q2.7,5.66,9.53,8.11a20.84,20.84,0,0,0,3.37,1.52,18.7,18.7,0,0,0,15-.79q9.25-4.3,10.16-18.2l1.42-22.13q2.09-26.73,12.71-44.88A13.54,13.54,0,0,0,120,39.18a26.41,26.41,0,0,0,3.78,1.61c-12.63,6.55-18.4,19.95-17.83,40.5.25,10.93,1.6,20.45,4.29,28.79,0,0,1.58,2.74,3.94,8.15,4,6.75,5.87,15.18,5.63,24.18a72.12,72.12,0,0,0,.95,15.75c.19,1,.34,2,.46,2.94q.57,16.71-11.78,24.82c-1.15.79-.94.5-.2.54a22.24,22.24,0,0,0,11.16-5.66c2.12,7.43,8.08,17.42,11.85,23.19q4.23,8,1.34,11.53c-3.87,4.68-12.86,3.18-17.75,2.4-13.31-2.13-10.38.53-21.39,6.17-12.58,6.44-24.05-5.77-41.35,1.42a41.21,41.21,0,0,0-10.54,4q16.73-8.43,36.15.16,11.33,3.85,19-1.18,6.83-5.28,18.83-3,7.94,1.93,18.34-3.75c0,.12.05.25.08.38.58,3.24,7.18,12,10.41,14.25,5.85,4.78,8.83,11.86-2.17,12.42-8.38.42-20.52-5-26.22,10.59a12.85,12.85,0,0,1-8.22,7.9q-1,.22-2.18.35,9.1,1.46,14.89-8.35,3.28-5.73,22.21-5,8.37.42,13.35-4.9c12.09,35.54-27.68,14.09-42.65,28.43-13.55,14.18-23.11,5.9-39.33.84-11-3.44-17.18-4.32-26.74,1.16a26.09,26.09,0,0,0-5.59,3.7q11.49-7.39,25.6-2.36A206.7,206.7,0,0,1,91,290.65c18.91,4.54,21.42-6,35-10.71a26.34,26.34,0,0,1,16.46-1.5q7.07,1.47,11.5.71c4.76-1.19,8.36-6.35,11.32-13.69a32.27,32.27,0,0,0,8,4.53c4.33,2.24,8.65,3.25,12.69,4.86a22.94,22.94,0,0,1,2.87,1.79c7.77,6.8,10.48,12.34,8.9,14.38-.76,3.56-8.56,3.74-21.35.43-8.93-2.42-14.36-1.94-18.87,2.68-2.86,2.51-8.76,3.43-15.52,2.6-17.21-4.35-32.26-2.61-49.33,6.42-2.66,1.64-5.53,1.89-9.43,2.25-4.74.58-13.26-1-24.69-5.63-6.16-2.77-15.64-2.62-29.22,0a28.27,28.27,0,0,1-15.81-1.95q-2.27-1.15-4.54-2.6-8.43-8.93-6.62-18.59l3.31-13.79C7.37,257.68,10,253.56,12,253c.51,1.44,3.51,2.48,8.15,3.5,9.07.21,11.63,9.35,25.25,2.93,6.12-3.72,13.86-4.1,20.24-2.11q6,1.13,15.68,6.54a25.75,25.75,0,0,0,15,5.2q-6.39-.07-14.18-5.75l-1.4-.9c-9.15-7.54-19-12.38-31.14-8.5-6.42,2.06-15.41,5.15-17.74-.54-5-6.65-17.87-3.22-21-8.44l0-1.27q.06-5.16,4.49-6.62a2.19,2.19,0,0,0,1.54-2.72,9.34,9.34,0,0,1,2.09-7.88q4.5-10,1.58-31.7a88.28,88.28,0,0,1,3.19-25.34c1.08-3.66,2.34-4.68,3.78-7.9,3.31-8.45,5.25-20.12,17.65-34.82a5.45,5.45,0,0,0,1.38-4.57,8.6,8.6,0,0,1,2.5-7.11,44.39,44.39,0,0,0,2.62-4.16A96.46,96.46,0,0,0,60,90.14Q62.38,83,63.91,76.79a47.37,47.37,0,0,1,7.48-14.3,162.88,162.88,0,0,1,10.44-12.6,66.65,66.65,0,0,0,10.91-15,8.65,8.65,0,0,0,.31-8.25A16.41,16.41,0,0,0,100.82,27.41Z" style="fill:#c5d871;fill-rule:evenodd"/><path d="M100.82,27.41a52.61,52.61,0,0,1-7.16,11.26q-2.95,4.2-13.25,14.71,1.53-1.78,3.37-3.86a66.66,66.66,0,0,0,10.91-15,8.83,8.83,0,0,0,.76-7.21,17,17,0,0,0,5.38.15ZM61.55,91.24q-.52,1.66-1,3.23-.08.55-.15,1.11a27.2,27.2,0,0,0-.29,6.11c-.45,1-1.07,2.44-1.9,4.61C55.78,112.52,50,114,50,122.41c0,7.19,3.89,6-4.8,13.85-2.75,2.49-8,6.64-9.88,9.43,0,0-.71,1.28-1.46,2.69-1.82,4.69-3,8.83-4.35,12.41a10.74,10.74,0,0,0-.14,1.08c-.06.92-1,1.78-2,3.06A18.23,18.23,0,0,0,25.57,169a71.54,71.54,0,0,0-1.79,7.67c-.15,1.8-.58,4.51-.58,6.91,0,6.35,2.69,17.39,4.63,23.37,2.21,6.81-1.07,12.53-6.06,16.58a23.17,23.17,0,0,1-1,2.52A9.34,9.34,0,0,0,18.71,234a2.19,2.19,0,0,1-1.54,2.72c-6.88,2.27-4,9.6,1.41,10.61,2.72.5,12.44.48,13.85,3.09,2.69,5-.69,5,8.64,4.68.88,0,6.34-1.86,8.47-2.21a18.43,18.43,0,0,1,3.35-.55c5.49-.27,4.93-.56,10.33.52,4.7.94,5.57,1.05,3,1.08,5.12,1.67,9.87,4.76,14.44,8.52l1.4.9q7.78,5.68,14.18,5.75a25.75,25.75,0,0,1-15-5.2q-9.69-5.4-15.68-6.54A26.42,26.42,0,0,0,51.16,257l-1.8.56a21.64,21.64,0,0,0-4,1.88c-10.48,4.94-14.42.66-19.81-1.67l-1.86-.55a14.66,14.66,0,0,0-2.28,1.15c-3.28,2.21-4,5.12-5.31,8.67-1.08,3,1.85,3.52-2.82,9-7.91,9.33-.33,20.16,10,24.05a25.65,25.65,0,0,0,6.11-.35c12.38-2.38,21.34-2.73,27.5-.67a23.28,23.28,0,0,1,6.92,1.77,96.82,96.82,0,0,0,12.37,4.2,26.31,26.31,0,0,0,7.13.33c3.9-.36,6.77-.6,9.43-2.25,16.89-8.94,31.81-10.73,48.8-6.55l1,.19c6.55.73,12.23-.21,15-2.66,4.47-4.58,9.84-5.09,18.64-2.74a46.15,46.15,0,0,1,5.43,1.16l1.85.46c8.57,1.54,13.69.86,14.3-2,1.58-2-1.13-7.58-8.9-14.38a22.94,22.94,0,0,0-2.87-1.79c-4-1.6-8.36-2.62-12.69-4.86a32.27,32.27,0,0,1-8-4.53c-3,7.33-6.56,12.49-11.32,13.69q-4.43.76-11.5-.71a26.34,26.34,0,0,0-16.46,1.5c-13.55,4.71-16.06,15.25-35,10.71a206.7,206.7,0,0,0-22.76-9.45q-14.11-5-25.6,2.36a26.09,26.09,0,0,1,5.59-3.7C57.83,274.39,64,275.27,75,278.7c16.21,5.06,25.77,13.34,39.33-.84,15-14.34,54.74,7.11,42.65-28.43q-5,5.31-13.35,4.9-18.94-.76-22.21,5-5.79,9.82-14.89,8.35,1.13-.13,2.18-.35a12.85,12.85,0,0,0,8.22-7.9c5.7-15.54,17.85-10.17,26.22-10.59,11-.55,8-7.64,2.17-12.42-3.23-2.27-9.83-11-10.41-14.25,0-.13-.05-.26-.08-.38q-10.4,5.69-18.34,3.75-12-2.29-18.83,3-7.65,5-19,1.18-19.43-8.59-36.15-.16a41.21,41.21,0,0,1,10.54-4c17.3-7.2,28.77,5,41.35-1.42,11-5.64,8.07-8.3,21.39-6.17,4.88.78,13.88,2.29,17.75-2.4q2.9-3.51-1.34-11.53c-3.76-5.78-9.72-15.77-11.85-23.19a22.24,22.24,0,0,1-11.16,5.66c-.75,0-1,.25.2-.54q12.35-8.13,11.78-24.82c-.12-1-.27-1.95-.46-2.94a72.12,72.12,0,0,1-.95-15.75c.24-9-1.61-17.43-5.63-24.18-2.36-5.41-3.94-8.15-3.94-8.15-2.69-8.34-4-17.86-4.29-28.79-.56-20.55,5.21-33.94,17.83-40.5A26.41,26.41,0,0,1,120,39.18,13.89,13.89,0,0,1,116,35.26q-9.64,17.62-11.62,43L103,100.35q-.91,13.9-10.16,18.2a19.25,19.25,0,0,1-5.9,1.83,18.91,18.91,0,0,1-11.1-.67,20.84,20.84,0,0,1-3.37-1.52q-6.83-2.45-9.53-8.11a23,23,0,0,1-2-14.49q.29-2.21.65-4.34Zm3.66,162.33-.89-.24.4.1.06,0h0l.41.11Zm-1.5-.38-.37-.08.37.08Zm-.46-.1-.41-.08.41.08Zm-2-.34-.4,0,.4,0Zm-.47-.06-1.47-.12.43,0h.11l.47,0h0l.45,0Zm-.47,0-.47,0,.47,0Zm-1-.07-.48,0,.48,0Zm-.57,0h0Zm-.51,0h0Zm-.51,0-1,0,.5,0h.5Zm-1.62.07-.43,0,.43,0Zm-.5,0-2.66.39.53-.1h0l.53-.09h0l.53-.08h0l.53-.07h0l.49-.05Zm-2.67.39-.5.1.5-.1Zm-.6.12-.5.11.5-.11Zm-1.07.25-.53.14.53-.14Zm-.58.16-.53.15Z" style="fill:#89be5c;fill-rule:evenodd"/><path d="M86.42,47.13q-2.6,2.78-6,6.25,1.53-1.78,3.37-3.86,1.39-1.51,2.65-3v.59ZM98.66,113.9q0,.5-.07,1a83.15,83.15,0,0,0,.09,18.21A45.67,45.67,0,0,1,98,149.23a15.24,15.24,0,0,1-1.63,3.09c-1.61,7.71,7.22,24.92,12.42,34-.34.22-.25.16.08.14.65,1.13,1.23,2.12,1.74,3,3.25,4.15,4.94,7.86,3,9.9-6.82,6.39-6.77,7.16-6,13.13.44,3.53,5.18,2.14,7.54,5.37-12.56-1.93-9.9.73-20.73,6.27-12.58,6.44-24.05-5.77-41.35,1.42a41.22,41.22,0,0,0-10.54,4q16.73-8.43,36.16.16,11.33,3.85,19-1.18,6.83-5.28,18.83-3a18.64,18.64,0,0,0,6.9.31q2.1,1.54,4.54,3c1.71,1.29,3.12,2.87,2.92,4a6.83,6.83,0,0,1,0,.76c2.86,6.22,7.66,9.94,8.42,15.08-7.9-.6-17.45-2.56-22.32,10.7a12.85,12.85,0,0,1-8.22,7.9q-1,.22-2.18.35,9.1,1.46,14.89-8.35,3-5.16,18.62-5c.38,1.09.72,2.19,1,3.21,5.21,5.44,10.76,7.79,16.09,9.93-7.33,8.76-31.77-.06-42.78,10.49-13.55,14.18-23.11,5.9-39.33.84-11-3.44-17.18-4.32-26.74,1.16a26.08,26.08,0,0,0-5.59,3.7q11.49-7.39,25.6-2.36a202.23,202.23,0,0,1,21.93,9.06c-10.69.11-21.38,2.74-33,8.08-.36.19-.72.37-1.08.52-5.1-1.49-12-1.46-21.05-.09a103.5,103.5,0,0,1-17-6.5A25.62,25.62,0,0,0,11.42,290c-2.13-4.33-2-9.32,1.91-13.94,4.66-5.5,1.74-6,2.82-9,1.27-3.55,2-6.46,5.31-8.67a14.64,14.64,0,0,1,2.28-1.15l1.86.55c5.4,2.33,9.33,6.61,19.81,1.67a21.65,21.65,0,0,1,4-1.88l1.8-.56a26.43,26.43,0,0,1,14.48.34q6,1.13,15.68,6.54a25.75,25.75,0,0,0,15,5.2q-6.39-.07-14.18-5.75l-1.4-.9c-4.57-3.76-9.32-6.85-14.44-8.52,2.53,0,1.67-.13-3-1.08-5.4-1.08-4.84-.79-10.33-.52a18.43,18.43,0,0,0-3.35.55c-2.13.34-7.59,2.17-8.47,2.21-9.33.36-6,.31-8.64-4.68-1.41-2.62-11.13-2.59-13.85-3.09-5.44-1-8.29-8.34-1.41-10.61A2.19,2.19,0,0,0,18.71,234a9.34,9.34,0,0,1,2.09-7.88,23.28,23.28,0,0,0,1-2.52c5-4,8.28-9.76,6.06-16.58-1.94-6-4.63-17-4.63-23.37,0-2.39.44-5.1.58-6.91A71.66,71.66,0,0,1,25.57,169a18.19,18.19,0,0,1,1.76-4.12c1.06-1.28,2-2.13,2-3.06a10.6,10.6,0,0,1,.14-1.08c1.37-3.58,2.53-7.72,4.35-12.41.76-1.41,1.48-2.65,1.46-2.69,1.83-2.79,7.13-6.94,9.88-9.43,8.69-7.88,4.8-6.65,4.8-13.85,0-8.41,5.81-9.89,8.19-16.1.83-2.17,1.45-3.58,1.9-4.61a27.2,27.2,0,0,1,.29-6.11q.07-.56.15-1.11.53-1.57,1-3.23-.36,2.13-.65,4.34a23,23,0,0,0,2,14.49q2.7,5.66,9.53,8.11a20.84,20.84,0,0,0,3.37,1.52,18.91,18.91,0,0,0,11.1.67,19.25,19.25,0,0,0,5.9-1.83,15.39,15.39,0,0,0,5.82-4.64ZM65.21,253.58l-.41-.11h0l-.06,0-.4-.1.89.24Zm-1.5-.38-.37-.08.37.08Zm-.46-.1-.41-.08.41.08Zm-2-.34-.4,0,.4,0Zm-.47-.06-.45,0h0l-.47,0h-.11l-.43,0,1.47.12Zm-.47,0-.47,0,.47,0Zm-1-.07-.48,0,.48,0Zm-.57,0h0Zm-.51,0h0Zm-.51,0h-.5l-.5,0,1,0Zm-1.62.07-.43,0,.43,0Zm-.5,0-.49.05h0l-.53.07h0l-.53.08h0l-.53.09h0l-.53.1,2.66-.39Zm-2.67.39-.5.1.5-.1Zm-.6.12-.5.11.5-.11Zm-1.07.25-.53.14.53-.14Zm-.58.16-.53.15.53-.15ZM163.25,270c-2.55,4.91-5.55,8.26-9.27,9.19q-4.43.76-11.5-.71a26.34,26.34,0,0,0-16.46,1.5c-9.8,3.41-13.82,9.86-22.45,11.46a88.2,88.2,0,0,1,10.89,2.69,44.75,44.75,0,0,0,5,.62,60,60,0,0,1,6.7-.23,13.62,13.62,0,0,0,6.34-2.4c5.49-5,11.76-5.24,21.9-1.89q3.14,1,5.93,1.73c4-2.45,8.82-2.41,15.9-.52q1.17.17,2.44.44A2.86,2.86,0,0,0,179,291c1.95-2.24-.82-8.8-9.34-17.12A30.36,30.36,0,0,0,163.25,270Z" style="fill:#c5d871;fill-rule:evenodd"/><path d="M100.82,27.41a52.63,52.63,0,0,1-7.16,11.26q-2.95,4.2-13.25,14.71,1.53-1.78,3.37-3.86a66.66,66.66,0,0,0,10.91-15,8.83,8.83,0,0,0,.76-7.21,17,17,0,0,0,5.38.15ZM96.14,116.5q-.1,3.87,0,8.24a52.48,52.48,0,0,1-1.91,18.43,17.45,17.45,0,0,1-2.08,3.43c-2.7,9.86,9,34.58,13.68,43.54,3.42,5,5.1,9.36,2.68,11.56-3.62,3-6.83,9.46-9.18,14.44q-7.57,8.82-19.77,7.8a73,73,0,0,0,8.26,2c-10.23.88-20.53-6.38-34.79-.45a41.21,41.21,0,0,0-10.54,4q16.73-8.43,36.15.16,11.33,3.85,19-1.18,4.94-3.82,12.58-3.68c2.93,4,21.27,15.79,15.75,20.75-2.73,2.45-5.12,4.39-5.86,7l1-.34a19.76,19.76,0,0,0-4.23,7.15,12.85,12.85,0,0,1-8.22,7.9q-1,.22-2.18.35,9.1,1.46,14.89-8.35,2.2-3.85,11.47-4.76a16.08,16.08,0,0,1,1.58,8.29c-1.11,8.14-12.14,4.52-21.45,13.44q11.64-6.12,22.91-5.88.7.82,1.4,1.57c-8.47.21-17.44.6-23,5.92-13.55,14.18-23.11,5.9-39.33.84-11-3.44-17.18-4.32-26.74,1.16a26.09,26.09,0,0,0-5.59,3.7q11.49-7.39,25.6-2.36A206.7,206.7,0,0,1,91,290.65c18.91,4.54,21.42-6,35-10.71a26.34,26.34,0,0,1,16.46-1.5q2.08.43,3.93.67c6.9,4.08,13.93,6.1,19.8,11a12.75,12.75,0,0,0-8.62,4.06c-2.79,2.45-8.47,3.38-15,2.66l-1-.19c-17-4.18-31.91-2.39-48.8,6.55-4.85,3-14.42,2.87-19.7,1-2.82-.85-6.1-1.87-9.43-3.24a21.88,21.88,0,0,0-6.73-1.85c-6.16-2.06-15.12-1.71-27.5.67a25.65,25.65,0,0,1-6.11.35c-10.28-3.89-17.86-14.72-10-24.05,4.66-5.5,1.74-6,2.82-9,1.27-3.55,2-6.46,5.31-8.67a14.66,14.66,0,0,1,2.28-1.15l1.86.55c5.39,2.33,9.33,6.61,19.81,1.67a21.64,21.64,0,0,1,4-1.88l1.8-.56a26.42,26.42,0,0,1,14.48.34q6,1.13,15.68,6.54a25.75,25.75,0,0,0,15,5.2q-6.39-.07-14.18-5.75l-1.4-.9c-4.57-3.76-9.32-6.85-14.44-8.52,2.53,0,1.67-.13-3-1.08-5.4-1.08-4.84-.79-10.33-.52a18.43,18.43,0,0,0-3.35.55c-2.13.34-7.59,2.17-8.47,2.21-9.33.36-6,.31-8.64-4.68-1.41-2.62-11.13-2.59-13.85-3.09-5.45-1-8.28-8.34-1.41-10.61A2.19,2.19,0,0,0,18.71,234a9.34,9.34,0,0,1,2.09-7.88,23.17,23.17,0,0,0,1-2.52c5-4,8.28-9.76,6.06-16.58-1.94-6-4.63-17-4.63-23.37,0-2.39.44-5.1.58-6.91A71.54,71.54,0,0,1,25.57,169a18.23,18.23,0,0,1,1.76-4.12c1.06-1.28,2-2.13,2-3.06a10.74,10.74,0,0,1,.14-1.08c1.37-3.58,2.53-7.72,4.35-12.41.76-1.41,1.48-2.65,1.46-2.69,1.83-2.79,7.13-6.94,9.88-9.43,8.69-7.88,4.8-6.65,4.8-13.85,0-8.41,5.81-9.89,8.19-16.1.83-2.17,1.45-3.58,1.9-4.61a27.2,27.2,0,0,1,.29-6.11q.07-.56.15-1.11.53-1.57,1-3.23-.36,2.13-.65,4.34a23,23,0,0,0,2,14.49q2.7,5.66,9.53,8.11a20.84,20.84,0,0,0,3.37,1.52,18.91,18.91,0,0,0,11.1.67,19.25,19.25,0,0,0,5.9-1.83,15.75,15.75,0,0,0,3.3-2ZM65.21,253.58l-.41-.11h0l-.06,0-.4-.1.89.24Zm-1.5-.38-.37-.08.37.08Zm-.46-.1-.41-.08.41.08Zm-2-.34-.4,0,.4,0Zm-.47-.06-.45,0h0l-.47,0h-.11l-.43,0,1.47.12Zm-.47,0-.47,0,.47,0Zm-1-.07-.48,0,.48,0Zm-.57,0h0Zm-.51,0h0Zm-.51,0h-.5l-.5,0,1,0Zm-1.62.07-.43,0,.43,0Zm-.5,0-.49.05h0l-.53.07h0l-.53.08h0l-.53.09h0l-.53.1,2.66-.39Zm-2.67.39-.5.1.5-.1Zm-.6.12-.5.11.5-.11Zm-1.07.25-.53.14.53-.14Zm-.58.16-.53.15.53-.15ZM106,216.73c0,.26,0,.51,0,.76l.28-.06Q106.09,217.08,106,216.73Z" style="fill:#abcb56;fill-rule:evenodd"/><path d="M154.58,251.52c5.62,10.22-.84,17.4-12.71,17.4a104,104,0,0,0-11.93.64c-15.48,1.54-23.2,14-30.19,14-11.72,0-16.55-4.38-27.56-5.73.91.26,1.85.55,2.82.85,16.21,5.06,25.77,13.34,39.33-.84,14.89-14.27,54.36,6.9,42.8-27.95l-.53-.1A15.41,15.41,0,0,1,154.58,251.52Z" style="fill:#c5d871;fill-rule:evenodd"/><path d="M145.76,236.76c2.28,3.35,3.1,6.83-4.92,8.43-12.12,2.42-16.67-1.51-22.39,10.81,6.14-11.3,17-6.81,24.7-7.19C153.87,248.26,151.31,241.52,145.76,236.76Z" style="fill:#c5d871;fill-rule:evenodd"/><path d="M126.66,194.83c1.47,5.44,2.29,11.52.39,14.2-4.36,6.16-12.56,1.32-18.09,2.31-8.71,1.57-8.4,12.9-24.31,12.9-4,0-11.87-1.11-14.12-.63,8.64,1.27,16,4.49,23.87.47,11-5.64,8.07-8.3,21.39-6.17,4.88.78,13.88,2.29,17.75-2.4q2.9-3.51-1.34-11.53C130.6,201.53,128.6,198.3,126.66,194.83Z" style="fill:#c5d871;fill-rule:evenodd"/><path d="M130.67,15.27a17.35,17.35,0,0,0-7.52.94c-9.39,4.29-11,16.19-2.53,21.85C142.79,49.54,154.86,17.49,130.67,15.27Z" style="fill:#fff;fill-rule:evenodd"/><path d="M98,1a17.36,17.36,0,0,1,7.52.94c9.39,4.29,11,16.19,2.53,21.85C85.83,35.22,73.76,3.17,98,1Z" style="fill:#fff;fill-rule:evenodd"/><circle cx="119.34" cy="26.07" r="3.82" style="fill:#201600"/><circle cx="107.22" cy="17.81" r="3.82" style="fill:#201600"/><circle cx="118.97" cy="25.98" r="1.52" style="fill:#fff"/><path d="M47.59,165.43c4.93-9.85,8,24.46,25.4,21.91.51-.08,11.21-6.26,13.52-7,19.13-6.39,4.86,13.32,1.14,13.13-8.2,1.33-9.84,11.3-14.11,13.68-7.87,4.38-11.07-18.12-13.3-8.64-3.59,15.27-11.7,6.17-14.83-18C45.11,178.21,46.91,166.78,47.59,165.43Z" style="fill:#50825f;fill-rule:evenodd"/><circle cx="107.59" cy="17.72" r="1.52" style="fill:#fff"/><path d="M38.51,178.36Q36,177,37,178.63a10.74,10.74,0,0,1,2.28,6.93q-.46,1.26,3.58,3.23,7,2.63,8.11,7.48,2.33,7.87,6.54,6c5.89-2.85-2.8-18.3-4.73-22.84-2.43-4.38-2.81-11-.32-14.57.09-.52.17-1,.21-1.3.16-1.3-.08-1.43-1.29-.33a15.28,15.28,0,0,0-1.75,8C47.72,176.65,43.86,178.54,38.51,178.36Z" style="fill:#201600;fill-rule:evenodd"/><path d="M39.25,173.36c-2.58,3-1.47,3.59-1.53,3.62a16.34,16.34,0,0,1,2.25,8.7q.12.68,1.18,1.18,1.8,1,4.37,2.28,5,2.5,5.71,6.38,2.32,7.19,5.4,6.46c6.44-1.56-2.8-18.68-4.77-22.57a33,33,0,0,1-2.29-8.11,22,22,0,0,1,1.78-8.1q-1.84-1-2.49.63C47,164.07,40.64,171.73,39.25,173.36Z" style="fill:#89be5c;fill-rule:evenodd"/><path d="M56,195.18c.93-4.69-4.46-14.36-5.44-17.14-1.68-3.71-2.36-11.24-1.6-15.61.53-4.41-8.85,2.72-10.37,4.51-2.76,3.25-.32,8.14-.39,8.17a15.67,15.67,0,0,1,2.15,8.35q.12.66,1.13,1.13,1.72,1,4.19,2.19,4.77,2.4,5.48,6.12C52.09,195.75,55.11,199.76,56,195.18Z" style="fill:#abcb56;fill-rule:evenodd"/><path d="M94.08,167.33c-1.35-.36-1.35.41-1.26,2.09-.63,12.77-19.73,6.7-25.29,27.06-1.26,7.74,4.58,6,8,1.65,5.39-6.31,11.39-9.14,16.72-7.34,2.23,0,2.16,0,1.08-1.16q-1.35-1-7.17-.08c-2-4.41-.92-9.32,4.18-12.84C95,170.76,95.12,168.26,94.08,167.33Z" style="fill:#201600;fill-rule:evenodd"/><path d="M90.5,189.19c13.06-.1,7.73-8.1,3.58-17.69-5.27,11.29-16.69,5.66-24.85,21.66q-2.48,6.87.24,7.76,2.16.52,4.33-2.17C78.6,192.89,82.78,189.55,90.5,189.19Z" style="fill:#89be5c;fill-rule:evenodd"/><path d="M96.38,185.92c7-4.1,1.46-10.55-2.29-14.41-4,8.57-11.55,7.39-18.53,13.33a42.78,42.78,0,0,0-3.37,4.72c-2.17,4.74-2.31,10.91,3,5.37C85,184.75,89,190.26,96.38,185.92Z" style="fill:#abcb56;fill-rule:evenodd"/><path d="M114,132.61c-2.37-8.33-9.54,1.93-5,3.15,5.76-1.43,1.15,9.24,0,11.19q-1.41,1.63.79,1.34A17.15,17.15,0,0,0,114,132.61Z" style="fill:#fff;fill-rule:evenodd"/><path d="M113,132.16c-2.37-8.33-9.54,1.93-5,3.15,5.76-1.43,1.15,9.24,0,11.19q-1.41,1.63.79,1.34A17.15,17.15,0,0,0,113,132.16Z" style="fill:#201600;fill-rule:evenodd"/><path d="M29.59,193.69c-7.67,5.49-2.8-26.76,0-28.15,1.53-1.46,3-.61,2.54.58q-7,13-2.21,26.32A1.31,1.31,0,0,1,29.59,193.69Z" style="fill:#fff;fill-rule:evenodd"/><path d="M84.55,122.6Q69,125,62.54,112.54q-.59-.7-1.06-.22a.93.93,0,0,0,.06,1c2.89,11,13,14.52,22.41,12C85.87,125,85.8,122.45,84.55,122.6Z" style="fill:#fff;fill-rule:evenodd"/><path d="M31.9,197.4c-.1-.12-1.77-3-2.8-1.08C27,200.15,35.89,202.47,31.9,197.4Z" style="fill:#fff;fill-rule:evenodd"/><path d="M91.14,120.61c-1.1-.06-7.37,2.34-3.72,3.6C89.93,125.08,95.22,120.85,91.14,120.61Z" style="fill:#fff;fill-rule:evenodd"/><path d="M8.28,280.49C5.51,291.61,15,294.37,14,287.33c-.7-4.79,1.68-9.43-2.15-10.54C10.33,276.35,8.74,278.63,8.28,280.49Z" style="fill:#fff;fill-rule:evenodd"/><path d="M18.46,237.77c4.55-.71-.18-4.85,3-7.91.9-.86,2-1.59,2.2-.6.28,1.54-2,2.68-.85,6.29,1.07,3.24-5.85,6.93,2.36,8.33,2.6.45,6-.75,6.76,1.4s-7.94,1.34-9.07,1.34c-2.83,0-7.91-1.46-8-5C14.85,239.86,16.76,238,18.46,237.77Z" style="fill:#fff;fill-rule:evenodd"/><path d="M16.75,285.69c-1.81,7.27,4.4,9.07,3.73,4.47-.45-3.13,1.1-6.17-1.41-6.89C18.09,283,17.05,284.48,16.75,285.69Z" style="fill:#fff;fill-rule:evenodd"/><path d="M75.35,186.33c-.11.12-2.09,3.23.29,2,.48-.25,2.69-2.43,3.84-3.13C88.4,179.76,81.1,180.25,75.35,186.33Z" style="fill:#fff;fill-rule:evenodd"/><path d="M40.84,177.24c-.82.09.3,4.54.28,5-.07,1.56,2.13,2.1,3.22,3,3.27,2.67,4,.1,1.3-1.27A21.24,21.24,0,0,1,43,182C42.5,181.14,42.36,177.07,40.84,177.24Z" style="fill:#fff;fill-rule:evenodd"/><path d="M93.38,218.12c1.23,2.51-4,4.24-8.53,4.76-4.29.49-6.7.31-8.33-.54-2.66-1.38-11.7-.83-14.68-.45-2.41.3-2.44-1.7,2.43-1.78,2.83,0,9.38-.64,13.24.73,2.42.86,7.15,1.07,9.4-.58,1.57-1.16,4.31-3.87,6.29-2.71C93.4,217.67,93.24,217.83,93.38,218.12Z" style="fill:#fff;fill-rule:evenodd"/><path d="M97,213.85c-3.76,0-2.28,4.9-.3,3.55.75-.51,1.06-1,1.79-1.49C100,214.92,98.23,213.85,97,213.85Z" style="fill:#fff;fill-rule:evenodd"/></g></g></svg>