<svg xmlns="http://www.w3.org/2000/svg" viewBox="0 0 161.96 279.82"><title>pers2</title><g id="Слой_2" data-name="Слой 2"><g id="_лой_1" data-name="—лой 1"><path d="M104.41,94.38A91.42,91.42,0,0,1,121,105q7.53,6.55,10.29,8.45,10.14,5.79,15.25,2.76,4.36-3.23,4.59-12.86.93-10.38,1.65-18.92-.23-12.21-9.37-25.81Q116.58,24.17,119.2,13.72q.88-10,4.5-9.28,5,.35,2.76,11.39-2.35,11.45,4,19,28.21,35,30.5,53.09.87,13.25-4.32,28.2-5.45,14.43.64,22.32,7.7,14.6,2.85,29-.94,2.74,0,8,4.3,22.46-9.28,38.58-7.17,9.54-20.39,16.72-5,3.78-6.61,14.51.67,23.27-7.81,29.58-12.93,8.9-21.4,1.84-2.53-6.52,2.76-10.47,18.16-9.34,16.44-22.6.28-12.36-7.44-8.73-17.9,10.6-36.65,2.3-12.43-6.1-12.49.92A28.12,28.12,0,0,0,64.65,257q11.26,14.22,2.3,20.12Q57.51,280.29,53.35,266,47.78,251,49,237.48q1.47-7.94-7.53-12.13A83.63,83.63,0,0,0,22.95,218q-11.67-3.07-13.41-15.62A22.39,22.39,0,0,0,6,193.3q-4.48-11.41-1.19-34.63Q8.39,133,4,125.32-8.87,79.54,19.55,48.26,37.47,30.33,36.63,20.33,37.6-4,46,.77,52,8,42.33,25a166.68,166.68,0,0,1-20,25.54C-.9,80.31,10,133.17,18.36,123.49q5.07-4,5.24-7.62,2.16-7.26,19.29-15.34a31.33,31.33,0,0,0,4.46-2.63C40.85,93,40.87,81.55,53.43,80.4a13.53,13.53,0,0,1,5.86.73A11,11,0,0,1,63.88,85,19.77,19.77,0,0,1,75,72.18a25.42,25.42,0,0,1,11-1.38C103.42,72.39,108,84.45,104.41,94.38Z" style="fill:#201600;fill-rule:evenodd"/><path d="M64.21,95.15a17.92,17.92,0,0,0,7.13,9c16.17,8.37,28.67.93,32.78-9q14.29,7.74,20.56,14.38,11.47,10.16,19.61,8.54,5.06-.89,6.89-6.93a24.65,24.65,0,0,0,1-6.52q1-14.53,1.79-19.7a44.79,44.79,0,0,0-3.44-15.71,66.81,66.81,0,0,0-11.44-17.59q-16.24-22.08-18.74-33.25-.27-14,3.31-12.17,3,.46,2.53,6.11-3,12.09,1.33,19.79L142,51.66q11.69,16.62,16.44,29.53,2.81,9.58-.28,24.53-1.31,6-2.43,9.37-4.56,10.52-2.11,18.14a24,24,0,0,0,2.8,5.7q7.41,15.36,2.71,28a7.38,7.38,0,0,0-.55,5.65q2.63,14.24.41,23.47-5.82,21.37-28.2,33.76-6.49,3.94-7.72,15.66.27,19.77-6.7,28.15-14.11,9.1-20.81,2.25-2.49-6.24,3.31-9.51,14.67-7.21,15.85-19,.87-12.78-3.44-14a7.42,7.42,0,0,0-6,1.29q-13.07,6.63-23,5-11.29-1.76-16-5.14-9.71-3.82-10.1,2.94a26.59,26.59,0,0,0,7,19.11q11.46,15,3.26,19.8-9.22,3.3-14.24-16.49a59.93,59.93,0,0,1-2.34-22.09q1.51-5-2.25-9.46a75.58,75.58,0,0,0-22.55-10.66Q13.27,215,10.69,203.77A23.22,23.22,0,0,0,7,193.16Q2.81,182,5.64,159.91q3.08-18.22.87-30.31a17.16,17.16,0,0,0-1.79-4.91Q-2.8,96.74,4.5,75.49a68.46,68.46,0,0,1,16-26.64Q37.26,31,37.61,22.67,38.68,1.19,43.4,2.05q6.51.23-.55,19.84A130.31,130.31,0,0,1,21.67,49.63Q7.94,66.8,7.16,96.2q.2,15.88,4.27,24.34,3.27,8.33,7.95,3.35l3.26-3.21a9.1,9.1,0,0,0,2-4.23q1-6.83,19.43-15.66a22.86,22.86,0,0,0,4.1-2.33c3.23,2,7.79,2.43,13.08-.31A9.89,9.89,0,0,0,64.21,95.15Z" style="fill:#50825f;fill-rule:evenodd"/><path d="M64.21,95.15a17.92,17.92,0,0,0,7.13,9c15.25,7.89,27.24,1.73,32-7.37q11.85,6.74,17.4,12.63,11,9.77,19,8.65a12.57,12.57,0,0,0,4.57,0q5.06-.89,6.89-6.93a24.65,24.65,0,0,0,1-6.52q1-14.53,1.79-19.7a41.35,41.35,0,0,0-.9-7.48q.8,1.88,1.46,3.68,2.81,9.57-.27,24.52-1.31,6-2.43,9.37-4.56,10.52-2.11,18.14a24,24,0,0,0,2.8,5.7q7.41,15.36,2.71,28a7.38,7.38,0,0,0-.55,5.65q2.62,14.24.41,23.47-5.82,21.37-28.2,33.76-6.49,3.94-7.72,15.66.27,19.77-6.71,28.15-6.8,4.39-11.88,5.07a9.4,9.4,0,0,1-5-2.74q-2.49-6.24,3.31-9.51,14.67-7.21,15.85-19,.87-12.78-3.44-14a7.57,7.57,0,0,0-3.48.09,3.14,3.14,0,0,0-.46-.16,7.42,7.42,0,0,0-6,1.29q-9.54,4.84-17.42,5.26-.84-.08-1.65-.22-11.29-1.76-16-5.14-4.87-1.92-7.4-1.17-6.33-1.4-6.64,4a26.59,26.59,0,0,0,7,19.11q11.46,15,3.26,19.8l-.65.21q-6-2.07-9.65-16.62a59.93,59.93,0,0,1-2.34-22.09q1.51-5-2.25-9.46a75.58,75.58,0,0,0-22.55-10.66Q13.27,215,10.69,203.77A23.22,23.22,0,0,0,7,193.16Q2.81,182,5.64,159.91q3.08-18.22.87-30.31a17.16,17.16,0,0,0-1.79-4.91Q-2.8,96.74,4.5,75.49A78.69,78.69,0,0,1,8.94,65Q3.7,78.29,3.22,96.13,3.42,112,7.5,120.47q2.8,7.15,6.64,4.5,2.35,2,5.24-1.07l3.26-3.21a9.1,9.1,0,0,0,2-4.23q1-6.83,19.43-15.66a22.86,22.86,0,0,0,4.1-2.33c3.23,2,7.79,2.43,13.08-.31a9.9,9.9,0,0,0,2.94-3ZM121,20.78q-.4-1.27-.66-2.42-.17-8.55,1.11-11.19,1.08,1.5.78,5.05A38.8,38.8,0,0,0,121,20.78ZM37.39,24.36a10.4,10.4,0,0,0,.22-1.69Q38.44,6,41.47,2.79q3.14,3.21-2.56,19Q38.16,23.11,37.39,24.36Z" style="fill:#fff;fill-rule:evenodd"/><path d="M103.34,96.82q11.85,6.74,17.4,12.63,10.87,9.64,18.76,8.68a13.54,13.54,0,0,0,6.51.42q4.41-.77,6.37-5.48-.3,1.05-.59,1.93-4.56,10.52-2.11,18.14a24,24,0,0,0,2.8,5.7q7.41,15.36,2.71,28a7.38,7.38,0,0,0-.55,5.65q2.62,14.24.41,23.47-5.82,21.37-28.2,33.76-6.49,3.94-7.72,15.66.27,19.77-6.71,28.15-6.76,4.36-11.82,5.06a9.58,9.58,0,0,1-3.33-2.25q-2.49-6.24,3.31-9.51,14.67-7.21,15.84-19,.87-12.78-3.44-14a8.56,8.56,0,0,0-.92-.13,3.12,3.12,0,0,0-.81-.35,7.57,7.57,0,0,0-3.48.09,3.14,3.14,0,0,0-.46-.16,7.42,7.42,0,0,0-6,1.29q-9.54,4.84-17.42,5.26-.84-.08-1.65-.22-4-.62-7.14-1.44A24.55,24.55,0,0,1,68,234.93a23.63,23.63,0,0,0-3.36-1.07q-3.68-1.19-5.76-.58-6.33-1.4-6.64,4a26.59,26.59,0,0,0,7,19.11q11.46,15,3.26,19.8l-.22.07q-5.07-3.07-8.36-16a59.92,59.92,0,0,1-2.34-22.09q1.51-5-2.25-9.46a75.57,75.57,0,0,0-22.55-10.66l-.67-.16-1-.32-.51-.12a17,17,0,0,1-12.14-13.23,23.22,23.22,0,0,0-3.67-10.61q-4.21-11.19-1.38-33.25,3.09-18.22.87-30.31a17.16,17.16,0,0,0-1.79-4.91Q0,101.31,4.4,82.33a112.3,112.3,0,0,0-1.18,13.8Q3.42,112,7.5,120.47q2.8,7.15,6.64,4.5a2.9,2.9,0,0,0,2.13.78q2.19,1.44,4.84-1.38l3.26-3.21a9.1,9.1,0,0,0,2-4.23q1-6.83,19.43-15.66a23.58,23.58,0,0,0,3.76-2.09c3.09,1.33,7.12,1.34,11.7-1a9.89,9.89,0,0,0,2.94-3,17.92,17.92,0,0,0,7.13,9c15.25,7.89,27.24,1.73,32-7.37Zm52.2-10.61q-.78,5.43-1.67,18.88a17.05,17.05,0,0,1-.28,3.32q.31-1.31.63-2.77,2.31-11.23,1.31-19.42ZM122.19,12.32c0-.25,0-.49.07-.73q0,.3,0,.62l0,.1ZM39.51,20.1Q40.3,8.43,42.35,4.5,43.42,8.74,39.51,20.1Z" style="fill:#abcb56;fill-rule:evenodd"/><path d="M106.27,98.53q9.63,5.78,14.47,10.91,10.87,9.64,18.76,8.68a13.54,13.54,0,0,0,6.51.42q4.41-.77,6.37-5.48-.3,1.05-.59,1.93-4.56,10.52-2.11,18.14a24,24,0,0,0,2.8,5.7q7.41,15.36,2.71,28a7.38,7.38,0,0,0-.55,5.65q2.62,14.24.41,23.47-5.82,21.37-28.2,33.76-6.49,3.94-7.72,15.66.27,19.77-6.71,28.15-6.76,4.36-11.82,5.06a9.58,9.58,0,0,1-3.33-2.25q-2.49-6.24,3.31-9.51,14.67-7.21,15.84-19,.87-12.78-3.44-14a8.56,8.56,0,0,0-.92-.13,3.12,3.12,0,0,0-.81-.35,7.57,7.57,0,0,0-3.48.09,3.14,3.14,0,0,0-.46-.16,7.42,7.42,0,0,0-6,1.29q-9.54,4.84-17.42,5.26-.84-.08-1.65-.22-2.82-.44-5.23-1c6-.31,12.66-1.48,16.81-4.86,3.3-2.69,4.4-1.72,5.94-2.75,2.6-1.72,10.68-2.29,11.88-3.08,13.87-9.17,8.64-13.78,10.5-16.65,5.17-8,7.68-10.26,8.28-20.47.43-7.28,7.6-13.53,5.46-21.58-2.31-8.7.2-17.66-5.43-24.66-1.56-1.94-13.1-24.49-13.27-25.56-2.19-13.19-6.91-12.45-13.31-16.63a20.53,20.53,0,0,0,2.35-3.84Zm49.26-12.32q-.78,5.43-1.67,18.88a17.05,17.05,0,0,1-.28,3.32q.31-1.31.63-2.77,2.31-11.23,1.31-19.42ZM122.19,12.32c0-.25,0-.49.07-.73q0,.3,0,.62Z" style="fill:#89be5c;fill-rule:evenodd"/><path d="M69.85,103.08a19.24,19.24,0,0,0,4,3.6c16.65,8.62,29.41.48,33.12-9.94q-1.4-.8-2.89-1.6c-.08.2-.17.4-.26.6l-.15.34-.29.58-.18.34-.32.56-.17.3-.38.6-.17.26-.41.59-.18.25-.45.58-.2.24-.48.56-.2.23-.54.56-.18.18-.59.56-.18.16-.63.54-.19.15-.66.51-.19.14-.72.49-.16.1-.78.47-.16.09-.82.44-.14.07-.86.4-.14.06-.92.37-.12,0-.95.32-.14,0-1,.27-.12,0-1,.22-.11,0-1.09.17h-.09l-1.13.11h-.09q-.57,0-1.16.05h-.08q-.6,0-1.21,0H84q-.63,0-1.27-.08h0q-.64-.06-1.3-.15h0q-.66-.1-1.33-.23h0q-.68-.13-1.37-.31h0q-.69-.17-1.39-.39h0q-.7-.21-1.42-.47h0q-.72-.26-1.45-.56h0q-1.48-.6-3-1.39l-.53-.37-.1-.07-.36-.27-.29-.22-.18-.15Z" style="fill:#50825f;fill-rule:evenodd"/><path d="M85.78,71.49a24.07,24.07,0,0,0-10.44,1.3c-13,6-15.21,22.46-3.51,30.31C102.59,119,119.34,74.56,85.78,71.49Z" style="fill:#fff;fill-rule:evenodd"/><circle cx="75.6" cy="87.67" r="3.77" style="fill:#201600"/><circle cx="75.24" cy="87.57" r="1.5" style="fill:#fff"/><path d="M6.74,152.24q7.6-4.5,12.14,0,7.91,8.62,2.94,22Q16.32,190.36,5.56,188q-2.16-10.64.08-28.07Q6.32,155.93,6.74,152.24Z" style="fill:#89be5c;fill-rule:evenodd"/><path d="M8.62,151.24q6.3-2.93,10.25,1,7.91,8.62,2.94,22-5.06,14.84-14.57,14-2.09-10.6.12-27.85Q8.18,155.6,8.62,151.24Z" style="fill:#50825f;fill-rule:evenodd"/><path d="M34.77,144q12.8-8.35,10.84-19.56-.71-11.36-10.93-5.7-11.16,5-10.29,15Q25.84,150,34.77,144Z" style="fill:#50825f;fill-rule:evenodd"/><path d="M55.43,148.61q4.83-3.91,1.84-10-1.69-5.79-6.52-4.13-8.39,3.35-5.51,10.65Q49.32,151.52,55.43,148.61Z" style="fill:#50825f;fill-rule:evenodd"/><path d="M62.14,214.47a10,10,0,1,0-10.2-10A10.13,10.13,0,0,0,62.14,214.47Z" style="fill:#50825f;fill-rule:evenodd"/><path d="M30.36,210.79a7.35,7.35,0,0,0,0-14.7,7.35,7.35,0,0,0,0,14.7Z" style="fill:#50825f;fill-rule:evenodd"/><ellipse cx="40.28" cy="168.82" rx="3.22" ry="3.4" style="fill:#50825f"/><path d="M58.7,168.44q-2-1.48,0-1.84,18.13,2.74,40.69-7.72Q123.2,146.77,123.23,114a13.2,13.2,0,0,0-3.67.69q-1.93-.34-.18-1.38,5.57-1.81,6.29.74.28.63-.14.32l-1.47-.46,0,1.29q8.79.18,10.84,5.51,2.29,6.12-3.35,9.78a8.31,8.31,0,0,1,2.42,5.95c8.64,11.66,11.37,24.74,8.29,35.51l-.19.63-.16.51-.15.45c-.08.23-.16.45-.24.67l-.14.38-.29.72-.16.37-.32.71-.17.36-.31.62-.23.44-.23.42-.35.6-.25.42-.38.59-.27.4-.31.44-.37.51-.31.41-.38.48-.38.46-.32.37-.47.52-.28.3-.56.57-.28.27-.6.56-.29.26-.64.56-.26.21-.66.52-.26.2-.68.5-.22.15-.81.54-.23.15-.84.52-.26.15-.86.49-.25.14L127,190l-.25.12-1,.46-.14.06-1,.43-.14.06-1.07.41-.24.09-1.08.36-.25.08-1.11.33-.26.07-1.18.31-.18,0-1.27.29-.13,0-1.3.25-.09,0-1.35.21-.19,0-1.35.17-.23,0-1.38.13-.23,0-1.42.09h-.24l-1.47.05h-1.76l-.7,0h0l-.62,0h-.09l-.61,0h-.18l-.44,0h-.26l-.43,0h-.17l-.43,0h-.43l-.17,0H102l-.14,0h-.11l-.17,0h-.18l-.16,0h-.08q-18.2-2.52-27-15.91-4.8,3.24-9.71-1A10,10,0,0,1,62,168.86Q59.2,168.57,58.7,168.44Z" style="fill:#abcb56;fill-rule:evenodd"/><path d="M53.88,165.46q-2-1.48,0-1.84,18.13,2.74,40.69-7.72Q118.39,143.8,118.41,111a13.21,13.21,0,0,0-3.67.69q-1.93-.34-.18-1.38,5.57-1.81,6.29.73.28.63-.14.32l-1.47-.46,0,1.29q8.79.18,10.84,5.51,2.29,6.13-3.35,9.78a8.31,8.31,0,0,1,2.42,5.95c8.64,11.66,11.37,24.74,8.29,35.51-.06.21-.12.42-.19.63l-.16.51-.15.45c-.08.23-.16.45-.24.67l-.14.38q-.14.36-.29.72l-.16.37-.32.71-.17.36-.31.63-.23.44-.23.42-.35.6-.25.41-.38.59-.27.4-.31.44-.37.51-.31.41-.38.48-.38.46-.32.37-.47.52-.28.3-.56.57-.28.27-.6.56-.29.26-.64.56-.26.21-.66.52-.26.2-.68.5-.22.15-.81.54-.23.15-.84.52-.26.15-.86.49-.25.14-.91.47-.25.12-1,.46-.14.06-1,.43-.14.06-1.07.41-.24.09-1.08.36-.25.08-1.11.33-.26.07-1.18.31-.18,0-1.28.29-.13,0-1.3.25-.09,0-1.35.21-.19,0-1.35.17-.23,0L107,191l-.23,0-1.42.09h-.24l-1.47.05h-1.76l-.7,0h0l-.62,0h-.09l-.61,0h-.18l-.44,0H99l-.43,0h-.17l-.43,0h-.43l-.17,0h-.17l-.14,0h-.11l-.17,0h-.18l-.16,0H96.3q-18.2-2.52-27-15.91-4.8,3.24-9.71-1a10,10,0,0,1-2.43-7.85Q54.38,165.59,53.88,165.46Z" style="fill:#201600;fill-rule:evenodd"/><ellipse cx="133.6" cy="210.43" rx="1.75" ry="2.02" style="fill:#50825f"/><path d="M150.93,212.71a14.08,14.08,0,0,1-2.82-8.53c0-7.2,5.2-13.06,11.7-13.31A35.93,35.93,0,0,1,159,196,50,50,0,0,1,150.93,212.71Z" style="fill:#396245;fill-rule:evenodd"/><path d="M149.13,209.51a14.39,14.39,0,0,1-1-5.33,13.36,13.36,0,0,1,7.66-12.38,34.91,34.91,0,0,1-.72,4.13A50.14,50.14,0,0,1,149.13,209.51Z" style="fill:#50825f;fill-rule:evenodd"/><path d="M82.44,169.69q-1.51-4.39-2.28-7.14a98.51,98.51,0,0,1-10.77,2.14q0,7.42,6,9.1A6.61,6.61,0,0,0,82.44,169.69Z" style="fill:#fff;fill-rule:evenodd"/><path d="M58.33,165.79q-.13,7.63,6,9.34A6.5,6.5,0,0,0,71,171.68q-2.35-2.35-2.38-6.88Q63.73,165.48,58.33,165.79Z" style="fill:#fff;fill-rule:evenodd"/><path d="M119,117.15a37,37,0,0,0,.19-4.13q9.75,0,10.84,7.22a6.5,6.5,0,0,1-4.23,6.2,28.29,28.29,0,0,0-7.43-3.19Q118.82,120.3,119,117.15Z" style="fill:#fff;fill-rule:evenodd"/><path d="M97.8,161c-1.66-2.44-2.53-3.7-2.87-4.1a66.75,66.75,0,0,1-14,5.43q2.64,7.75,2.4,7.08,1.83,3.67,9.2,1.75Q101.63,168,97.8,161Z" style="fill:#fff;fill-rule:evenodd"/><path d="M112.29,157.76a11,11,0,0,1-4.31,5.66q-6,3.39-12.5-6.81a50.14,50.14,0,0,0,5-3.1,30.36,30.36,0,0,0,3.16-2.47q1.26-1.08,2.43-2.24Q112.36,154.19,112.29,157.76Z" style="fill:#fff;fill-rule:evenodd"/><path d="M122.82,150.44c2.7-4.67-.2-8.8-9-12.41a41.16,41.16,0,0,1-7.23,10.22Q117.49,157.39,122.82,150.44Z" style="fill:#fff;fill-rule:evenodd"/><path d="M118.21,124.24q11.77,4,9.91,10.72c-3.87,8.79-9.58,3.67-14,2.35A49.24,49.24,0,0,0,118.21,124.24Z" style="fill:#fff;fill-rule:evenodd"/><path d="M70.56,173.77q8.39,13.08,26,15.58,3.4-16.91,21.79-14.61,3-10.79,18.08-6.16c3-10.19.5-22.56-7.48-33.67a7.83,7.83,0,0,1-.68,1.56q-2.28,5.38-6.48,4.73,5,5,1.56,10.43-5.1,5.39-12.08,1.42,4.7,5.44-1.38,10.15-6,4.33-10.33-.51,1.66,6.75-6.11,9.09-6.94,2.49-10.2-1-5.62,6.83-11.85,2.16Q71,173.41,70.56,173.77Z" style="fill:#333663;fill-rule:evenodd"/><path d="M97.62,189.49q3.17-17.13,21.94-13.47.53-10.92,16.6-6.69c-3.82,11.92-15.21,20.67-34.06,20.53Q99.79,189.76,97.62,189.49Z" style="fill:#50825f;fill-rule:evenodd"/><path d="M157.08,140.34q-4.53-1.14-7.13,2-6.34,11.94-.28,19,5,4.09,10.31,2.82Q162.88,153.26,157.08,140.34Z" style="fill:#396245;fill-rule:evenodd"/><path d="M153.14,140.25a6.07,6.07,0,0,0-3.18,2.11q-6.34,11.94-.28,19a12.91,12.91,0,0,0,6.3,3Q159,153.33,153.14,140.25Z" style="fill:#50825f;fill-rule:evenodd"/><circle cx="85.1" cy="204.46" r="1.93" style="fill:#3e4276"/><ellipse cx="141.04" cy="200.51" rx="4.04" ry="4.41" style="fill:#50825f"/><ellipse cx="152.43" cy="185.44" rx="2.02" ry="2.2" style="fill:#50825f"/><path d="M116.1,111.53a2.56,2.56,0,0,1,2.57-.46q-.28,33.38-25.26,45.19a72.86,72.86,0,0,1-31,7.9Q115.84,157.91,116.1,111.53Z" style="fill:#89be5c;fill-rule:evenodd"/><path d="M53.62,81.18a12.23,12.23,0,0,1,5.3.66,9.75,9.75,0,0,1,4.67,4.35,17.39,17.39,0,0,0,.19,7.56,8.78,8.78,0,0,1-3.08,3.49C45.07,105.34,36.56,82.74,53.62,81.18Z" style="fill:#fff;fill-rule:evenodd"/><circle cx="58.1" cy="88.3" r="2.41" style="fill:#201600"/><circle cx="57.94" cy="88.09" r="0.8" style="fill:#fff"/><path d="M65.92,98.7a10.23,10.23,0,0,1-2.13,1.9c-7,3.61-12.67,1.67-15.72-2l.12-.08c3.23,2,7.79,2.43,13.08-.31a9.9,9.9,0,0,0,2.94-3A17,17,0,0,0,65.92,98.7Z" style="fill:#50825f;fill-rule:evenodd"/></g></g></svg>