<svg xmlns="http://www.w3.org/2000/svg" viewBox="0 0 184.52 226.2"><title>pers8</title><g id="Слой_2" data-name="Слой 2"><g id="_лой_1" data-name="—лой 1"><path d="M149.23,66.25c55.91,71.41,51.13,159.48-56.07,159.93-50.5,1-93.27-26.7-93.15-84.94q2.13-27.3,21.6-54.9A288.31,288.31,0,0,1,51.15,49.47c6.58-7.33,10.8-16.34,10.9-26.27q.15-8.75-4.94-9.89-5.54-.85-6.36-9.71Q50.75-.94,56,.24c5.94,1.68,9.31,8.27,9.65,20,.05,1.84-.62,3.82.45,5.45Q68.52,29.4,78.92,33c13.26,5.73,32.08,2.5,42.3-9.51a18.19,18.19,0,0,0,1.12-2.24,32.16,32.16,0,0,0,.95-3.48C127,7.25,132.14,2.24,138.15,2.36q5.34.38,4,4.72-3.35,8.24-8.9,7.45-5.2-.39-7.6,8l-.1.33C120.62,41.86,138.91,52.54,149.23,66.25Z" style="fill:#201600;fill-rule:evenodd"/><path d="M53.31.88a8.67,8.67,0,0,1,7.77,4Q65.2,11,64.7,23.68q-.58,3.7,7.33,7.55Q94.12,42,113.21,31.1a37,37,0,0,0,8.67-7,18.23,18.23,0,0,0,1.63-4.19c2-6.49,4.67-11.23,7.85-14.12l0,0,.12-.1.06,0,.09-.08.25-.21a8.67,8.67,0,0,1,8.58-1.53q2.86.94-.85,6.45-1.94,4.16-7.48,3.68-4.83.38-7.13,7.77h0L125,22h0c-5.17,21.69,11.95,29.92,23.42,45.17,55.28,70.61,50.84,157.65-55.17,158.1-49.94,1-92.23-26.4-92.11-84q2.1-27,21.36-54.29A285.06,285.06,0,0,1,51.68,50.52a51.67,51.67,0,0,0,6.17-8.3,4,4,0,0,0,1.57.75q5.29-7.09,3.49-20.46h0q-.05-7.74-4.57-9.5-5.44-1.15-6.09-5.69Q50.3,1,53.31.88Z" style="fill:#6b9f53;fill-rule:evenodd"/><path d="M89.51,36.4a39.43,39.43,0,0,0,23.7-5.3,71.87,71.87,0,0,0,8.6-7,19,19,0,0,0-2.17,5.33c-.07.29-.14.61-.2,1A19.15,19.15,0,0,0,120,39.1h0a17.07,17.07,0,0,0,6.08,9.73,153.34,153.34,0,0,1,16.2,18.23c55.28,70.61,50.84,157.66-55.17,158.1l-1.8,0C38.91,223.27,1,195.8,1.1,141.26q2.1-27,21.36-54.29A285.06,285.06,0,0,1,51.68,50.52q9-10,10.37-19.82.16-.83.28-1.62a29.87,29.87,0,0,0,3.62,2q12.23,6,23.55,5.28ZM58,12.93q-5.16-1.21-5.79-5.63-1.24-4-.48-5.53a10.22,10.22,0,0,1,3.23,3A21.57,21.57,0,0,1,58,12.93Z" style="fill:#fff;fill-rule:evenodd"/><path d="M89.51,36.4a38.62,38.62,0,0,0,12.35-.8c8.74-1.45,12.73-3.93,18.94-9.59C119.09,30,119,34.11,120,39.1h0c3.72,7.72,17.19,19.61,22.27,28,53.27,68,51.07,151.33-44,157.7-.92,0-1.83,0-2.76,0-49.94,1-92.23-26.4-92.12-84q2.1-27,21.36-54.29A284.91,284.91,0,0,1,54,50.06q9-10,10.36-19.76.75.41,1.6.82,12.23,6,23.55,5.28ZM57.76,11.51a6,6,0,0,1-3.19-4.66,16.5,16.5,0,0,1-.75-3.51A12.16,12.16,0,0,1,55,4.73,20.3,20.3,0,0,1,57.76,11.51Z" style="fill:#89be5c;fill-rule:evenodd"/><path d="M104.56,48a153.45,153.45,0,0,1,16.2,18.23c53.19,67.94,51.07,151.07-43.58,157.67-41.53-5.37-73.87-32.65-73.78-83q2.11-27,21.36-54.29A285,285,0,0,1,54,50.07c6.45-7,8.18-15,8.92-27.55h0q-.05-7.74-4.57-9.5-5.44-1.15-6.09-5.69Q50.28,1,53.3.9a8.67,8.67,0,0,1,7.77,4Q65.19,11,64.68,23.69c.28,2.83,2.15,5,7.33,7.55,10.66,5.2,21.13,6.59,30.74,4.21C98.6,40.39,98.39,43.25,104.56,48Z" style="fill:#abcb56;fill-rule:evenodd"/><circle cx="80.98" cy="70.55" r="20.11" style="fill:#6b9f53"/><circle cx="106.48" cy="70.35" r="7.51" style="fill:#6b9f53"/><path d="M108.6,112Q68.86,114.89,50,95.72q-17.86,12.93-14,26,1,2.89,4.24,1.76a16.51,16.51,0,0,0,8.47-7.94q-2.91,15.9,3.8,17.66T67.2,119.73c-2.32,26.42,10.57,17.67,15.62,3.88q.69,18,9,16.51,4.24-1.76,8.65-14,3.48,14.22,11.83,14.39,5.66-.76,6.36-14.92,9.92,21.54,14.83-1.76,15.58,16,11.3-9.27,12.7,13.82,7.15-11.48a45.24,45.24,0,0,0-6.89-13Q131.81,108.75,108.6,112Z" style="fill:#89be5c;fill-rule:evenodd"/><path d="M104.43,109.07Q64.7,112,45.82,92.83q-17.86,12.93-14,26,1,2.89,4.24,1.77a16.51,16.51,0,0,0,8.47-7.94q-2.91,15.9,3.8,17.66Q55.08,132,63,116.84c-2.32,26.42,10.57,17.67,15.62,3.88q.69,18,9,16.51,4.24-1.76,8.65-14,3.48,14.22,11.83,14.39,5.66-.76,6.36-14.92,9.92,21.54,14.83-1.77,15.58,16,11.3-9.27,12.71,13.82,7.15-11.48a45.25,45.25,0,0,0-6.89-13Q127.64,105.85,104.43,109.07Z" style="fill:#201600;fill-rule:evenodd"/><path d="M52.13,99.18,45.86,94q-15.56,11.16-13.77,22.2.45,4.91,4.37,3.53Q42.6,117.5,52.13,99.18Z" style="fill:#b1d28b;fill-rule:evenodd"/><path d="M50.26,97.63,45.86,94q-15.56,11.16-13.77,22.2a7.89,7.89,0,0,0,.38,1.9,3.8,3.8,0,0,0,2.27-.21Q40.84,115.67,50.26,97.63Z" style="fill:#fff;fill-rule:evenodd"/><path d="M52.71,99.58q14.71,7.75,27.45,9.75A47.94,47.94,0,0,1,78,119.84q-4.11,11.92-10.42,13.37-4.34,0-3.88-12.45-.09-6.36,3.18-14.65l-1-.18q-5.06,16.85-13.24,23.35-5.24,1.49-7.64-3.31Q41.81,117.31,52.71,99.58Z" style="fill:#b1d28b;fill-rule:evenodd"/><path d="M66.2,105.64a74.67,74.67,0,0,0,14,3.7A47.94,47.94,0,0,1,78,119.84q-4.11,11.92-10.42,13.37-4.34,0-3.88-12.45-.09-6.36,3.18-14.65l-.74-.13Z" style="fill:#b1d28b;fill-rule:evenodd"/><path d="M66.2,105.64A76.45,76.45,0,0,0,78.38,109a46.26,46.26,0,0,1-2.05,9.2q-4.11,11.92-10.42,13.37a2.62,2.62,0,0,1-1-.19q-1.57-2.93-1.29-10.65-.09-6.36,3.18-14.65l-.74-.13Z" style="fill:#fff;fill-rule:evenodd"/><path d="M52.71,99.58a113.19,113.19,0,0,0,11.24,5.2q-5,16.5-13.11,22.91a6.3,6.3,0,0,1-5.08-.36,8.85,8.85,0,0,1-.83-1.36Q41.81,117.31,52.71,99.58Z" style="fill:#fff;fill-rule:evenodd"/><path d="M97.68,110.13q-12.23.5-16.68-.84a42.49,42.49,0,0,1-1.81,10.55q.9,17.73,7.72,16.42,5.07-1.51,8.78-14.43Q96.54,118,97.68,110.13Z" style="fill:#b1d28b;fill-rule:evenodd"/><path d="M95.34,110.21Q85,110.49,81,109.29a42.49,42.49,0,0,1-1.81,10.55q.4,8,2,12.1a4,4,0,0,0,3.86,1.2q5.07-1.51,8.78-14.43Q94.5,115.68,95.34,110.21Z" style="fill:#fff;fill-rule:evenodd"/><path d="M111.76,108.1q-9.56,2.49-13.55,2a90.54,90.54,0,0,1-1.63,11.65q4,15.3,11.56,15.14,5.32-1.08,5.65-15.54A32,32,0,0,0,111.76,108.1Z" style="fill:#b1d28b;fill-rule:evenodd"/><path d="M110,108.55q-8.15,2-11.76,1.58a90.54,90.54,0,0,1-1.63,11.65q2.67,10.24,6.95,13.56a6.91,6.91,0,0,0,2.24.31q5.32-1.08,5.65-15.54A31.43,31.43,0,0,0,110,108.55Z" style="fill:#fff;fill-rule:evenodd"/><path d="M123.9,103.24q-7.7,4-11.48,4.63,2.88,7.83,2.21,13.9,6.6,13.64,10.33,9.22Q132.7,118.2,123.9,103.24Z" style="fill:#b1d28b;fill-rule:evenodd"/><path d="M121.33,104.55a34.76,34.76,0,0,1-8.91,3.33q2.88,7.83,2.21,13.9,3.7,7.63,6.49,9.61a4,4,0,0,0,.48-.48Q129,118.71,121.33,104.55Z" style="fill:#fff;fill-rule:evenodd"/><path d="M140.58,88.06a39.84,39.84,0,0,1-9.71,10.5q13,18.09,17.13,16.86,1-1,.93-3.49A42.14,42.14,0,0,0,140.58,88.06Z" style="fill:#b1d28b;fill-rule:evenodd"/><path d="M137.95,91.67a34.41,34.41,0,0,1-7.08,6.9q9,12.48,13.73,15.76a9.54,9.54,0,0,0,0-1.19A42.17,42.17,0,0,0,137.95,91.67Z" style="fill:#fff;fill-rule:evenodd"/><path d="M129.37,120q14.81,16.15,10.64-9a98.88,98.88,0,0,1-9.4-11.83L124.52,103Q130.19,112.15,129.37,120Z" style="fill:#b1d28b;fill-rule:evenodd"/><path d="M129.37,120a29.86,29.86,0,0,0,6.13,5.44q2.67-2.23.59-14.84a90.08,90.08,0,0,1-8-9.84L124.52,103Q130.19,112.15,129.37,120Z" style="fill:#fff;fill-rule:evenodd"/><path d="M10.48,139.23c-10.09,6.35,4.15,43.37,10.87,49.83q1,.68,1.61,0,.46-.49-.18-1.32C12.94,172.32,9,158,11,144.67,11.14,143.62,13.13,138.47,10.48,139.23Z" style="fill:#fff;fill-rule:evenodd"/><circle cx="81.94" cy="68.03" r="19.01" style="fill:#fff"/><path d="M8.94,130.59c-3.49,6.91,3.45,9.54,3.53,4.92.06-3.14,2.45-5.92-.35-7C11,128.1,9.53,129.43,8.94,130.59Z" style="fill:#fff;fill-rule:evenodd"/><path d="M44,69.05a2.06,2.06,0,0,0-2.32.55q-27,33.87-31.25,55.44.39,3.12,2.91.88a4.75,4.75,0,0,0,.71-3q2.08-19.49,28.07-50.4Q44.77,70.31,44,69.05Z" style="fill:#fff;fill-rule:evenodd"/><path d="M164.2,193q-1.62-.26-.33-1,7.56-7.29,7.35-14c.67-3.12,5.45-2.74,4.56,1Q171.19,190.38,164.2,193Z" style="fill:#b1d28b;fill-rule:evenodd"/><path d="M158.26,90.6q.31-.68,1.41.24,24.91,49,17.48,81.57-1.31,2.08-2.9,1-1.61-1.29,0-3.29Q182.18,135.19,159,93,157.84,91.51,158.26,90.6Z" style="fill:#b1d28b;fill-rule:evenodd"/><path d="M20.24,164.44c4.44-2,10.25,2.61,13,10.31s1.32,15.57-3.12,17.58-10.25-2.61-13-10.31S15.79,166.45,20.24,164.44Z" style="fill:#fff;fill-rule:evenodd"/><path d="M31.59,163.47c1.24-.85,3.25.24,4.49,2.42s1.24,4.65,0,5.5-3.25-.24-4.49-2.43S30.35,164.32,31.59,163.47Z" style="fill:#fff;fill-rule:evenodd"/><path d="M126,205.25c19-10,31-29.12,29.11-51q4.4-4.3,4.5,1.5.53,35.47-32.89,51.4Q124.62,206.75,126,205.25Z" style="fill:#fff;fill-rule:evenodd"/><circle cx="106.19" cy="69.89" r="6.14" style="fill:#fff"/><circle cx="105.92" cy="69.18" r="6.38" style="fill:#201600"/><circle cx="105.5" cy="69.07" r="5.6" style="fill:#fff"/><circle cx="104.86" cy="68.55" r="2.56" style="fill:#201600"/><path d="M20.88,138.76q-1.88-.72-1,.32A7.5,7.5,0,0,1,22,143.7q-.22.91,2.75,1.94,5.08,1.24,6.24,4.52,2.26,5.27,5,3.64c3.84-2.46-3.45-12.45-5.16-15.44-2-2.84-2.86-7.41-1.42-10.07.13-2.19-3.83-2.75-4.47-2.55C23.41,126.22,23.49,130.29,20.88,138.76Z" style="fill:#89be5c;fill-rule:evenodd"/><circle cx="104.41" cy="68.05" r="1.05" style="fill:#fff"/><path d="M16.55,137.37q-1.88-.72-1,.32a7.5,7.5,0,0,1,2.15,4.62q-.21.92,2.75,1.94,5.08,1.24,6.24,4.52,2.26,5.26,5,3.64c3.84-2.46-3.45-12.45-5.16-15.44-2-2.84-2.85-7.41-1.42-10.07,0-.37,0-.67,0-.92,0-.91-.17-1-.92-.12a10.67,10.67,0,0,0-.55,5.7C22.79,135.43,20.27,137.06,16.55,137.37Z" style="fill:#201600;fill-rule:evenodd"/><path d="M16.65,133.85c-1.54,2.32-.72,2.61-.76,2.63a11.4,11.4,0,0,1,2.27,5.85q.14.46.92.72,1.33.56,3.22,1.22,3.65,1.32,4.48,4,2.2,4.79,4.27,4c4.33-1.61-3.48-12.72-5.16-15.25a23,23,0,0,1-2.26-5.44,15.31,15.31,0,0,1,.56-5.76q-1.35-.52-1.67.64C21.27,126.77,17.48,132.6,16.65,133.85Z" style="fill:#89be5c;fill-rule:evenodd"/><path d="M30.07,147.59c.26-3.32-4.27-9.58-5.18-11.43-1.47-2.43-2.56-7.59-2.4-10.69,0-3.1-5.91,2.62-6.82,4-1.65,2.48.45,5.67.4,5.69a10.94,10.94,0,0,1,2.18,5.61q.13.45.88.69,1.27.53,3.08,1.17,3.5,1.27,4.3,3.79C27.39,148.31,29.82,150.84,30.07,147.59Z" style="fill:#abcb56;fill-rule:evenodd"/><path d="M18.07,136.41c-.56.13.58,3.12.6,3.45.08,1.09,1.65,1.28,2.48,1.81,2.48,1.58,2.75-.26.8-1a14.62,14.62,0,0,1-2-1.17C19.55,139,19.11,136.17,18.07,136.41Z" style="fill:#fff;fill-rule:evenodd"/><path d="M157.35,128.56c-1-.14-.9.4-.7,1.55.62,8.9-13.12,6.27-15.3,20.83-.23,5.46,3.67,3.79,5.65.49,3.21-4.82,7.14-7.27,11-6.47,1.55-.17,1.5-.17.66-.89q-1-.61-5,.54c-1.78-2.89-1.4-6.38,1.84-9.24C158.24,130.87,158.15,129.12,157.35,128.56Z" style="fill:#201600;fill-rule:evenodd"/><path d="M156.67,144c9-1.14,4.69-6.25,1-12.55-2.73,8.25-11.1,5.29-15.44,17.06q-1.15,5,.8,5.36,1.54.18,2.82-1.86C148.73,147.55,151.35,144.89,156.67,144Z" style="fill:#89be5c;fill-rule:evenodd"/><path d="M160.47,141.26c4.49-3.42.14-7.43-2.78-9.8-2.07,6.27-7.4,6.07-11.74,10.76a30,30,0,0,0-1.95,3.55c-1.11,3.47-.71,7.75,2.5,3.47C152.49,141.38,155.72,144.87,160.47,141.26Z" style="fill:#abcb56;fill-rule:evenodd"/><path d="M145.94,143.28c-.07.09-1.19,2.41.37,1.37.31-.21,1.67-1.9,2.4-2.48C154.44,137.64,149.42,138.59,145.94,143.28Z" style="fill:#fff;fill-rule:evenodd"/><circle cx="81.99" cy="67.17" r="18.83" style="fill:#201600"/><circle cx="82.47" cy="66.93" r="17.57" style="fill:#fff"/><path d="M65.93,72.88a17.58,17.58,0,0,0,32.85.61c-.11,0-.27,0-.35.1C87.4,85.93,80.54,67.41,65.93,72.88Z" style="fill:#89be5c;fill-rule:evenodd"/><circle cx="81.38" cy="66.21" r="4.2" style="fill:#201600"/><circle cx="81.2" cy="65.57" r="1.67" style="fill:#fff"/><path d="M81,45.71A8.52,8.52,0,0,0,78.39,42a28.82,28.82,0,0,1-12.8,12.62q-2.49,1.94,1.24,2.1A34.9,34.9,0,0,0,81,45.71Z" style="fill:#201600;fill-rule:evenodd"/><path d="M92.26,109.44Q62.57,107.19,56,99.72q53.82,13.8,74.83-13,5.5-9.65-3.29-21.29,10.93,9.79,13.23,20.93Q124.38,111.07,92.26,109.44Z" style="fill:#89be5c;fill-rule:evenodd"/><path d="M47.37,95.94c26.82,20.39,76.54,21.16,95-10.33q2.67-6.13-2-7.77-2.66.51.35,3.09a2.85,2.85,0,0,1,.18,3.09c-15.16,31-67.67,30.87-93.13,10.17a9.38,9.38,0,0,1-2.65-6.29C49.89,76,35.78,87.33,47.37,95.94Z" style="fill:#201600;fill-rule:evenodd"/><path d="M113.59,61.8a1.29,1.29,0,0,1-1.5,1.24,16.45,16.45,0,0,1-6.35-7.64,7.64,7.64,0,0,0,4.32-1.72Q109.33,59.17,113.59,61.8Z" style="fill:#201600;fill-rule:evenodd"/></g></g></svg>