<svg xmlns="http://www.w3.org/2000/svg" viewBox="0 0 153.07 216.24"><title>pers1</title><g id="Слой_2" data-name="Слой 2"><g id="_лой_1" data-name="—лой 1"><path d="M139.55,146q6.56-8.19,3.23-12.86a109.69,109.69,0,0,0,3.77-83.67c1.76-2.69,2.24-6.88,1-11.2-1.89-6.55-7-10.91-11.52-9.74h0C120.3,5.07,96.1-7,73.69,4.23A9.35,9.35,0,0,1,71,5a8.57,8.57,0,0,0-8-.29,8.82,8.82,0,0,0-5.21,5.41c-1.4.77-2.76,1.56-4.11,2.35-2.57-.11-6,1-9.35,3.18-3.51,2.32-6,5.27-6.74,7.77C6.08,48.37-5,81.27,2.05,116.64a15.09,15.09,0,0,0-1.69,9.53c.72,5.54,3.94,9.9,7.75,11a175.23,175.23,0,0,0,22.54,40.2q14.14,16.68-.73,37.61,3.85,3.08,11.39-13.24,5.25-9.14,2.05-17.61a71.07,71.07,0,0,1-3.49-20.34q2.06,3,4.27,6,14.14,16.68-.73,37.61,3.85,3.08,11.39-13.24a22.06,22.06,0,0,0,3.26-11.37c7.6,8.74,6.56,24.68-2.91,31.78q-1,2.84,3.64.73,14-12.11,12-40.89a22.82,22.82,0,0,1,4.46,6.77q4.21,17.72-6.62,25.83-1,2.84,3.64.73,15-13,11.65-45a22.59,22.59,0,0,1-.17-6.09c9.46,4.27,2.37,19.41,1.38,27.43q-2.81,23.53,7.62,29.34,3.2.37-.2-4.77c-5.51-9.16-4.16-18.62,6.34-34.06q-.14,1-.27,1.93-2.82,23.53,7.61,29.34,3.2.37-.2-4.77c-10.87-19.9,9.47-31.51,13-46.4a56.51,56.51,0,0,1-3.16,11.85q-8.09,19,3.38,38.61,3.51,2.63,2.85-2.32-10.09-27.11,6.42-46.42a49.72,49.72,0,0,0,5-6.89l.51-.77A8.18,8.18,0,0,0,139.55,146Z" style="fill:#201600;fill-rule:evenodd"/><path d="M39.81,162.2a65.69,65.69,0,0,0,4.76,6.64q10.15,12.89,6.16,24.9-2.78,8.48-6.36,13.18Q46.86,209,54,194.77q3.82-7,3.55-12.48a18.92,18.92,0,0,0-3.34-2.83c-9.44-9.27-.25-35.09-12.58-24a8,8,0,0,0-1.85,5.69q0,.55,0,1.09Zm30.94,11.63a18.5,18.5,0,0,1,5.14,7.33q4.12,18-6.79,26.12-.36,1.6,2.71,0,8.9-7.12,11.59-23.44a88.21,88.21,0,0,0,.1-20.16,25.16,25.16,0,0,1-.45-7.27,13.77,13.77,0,0,0-4.74-.7q-9.76,1.85-7.88,14.63.18,1.75.31,3.45Zm29.11-.46q-2.56,13.52.63,24.64a14.31,14.31,0,0,0,5.79,7.22q1.17.21.76-1-6.42-10.27-3.58-20.3c2.73-12.72,21-28.7,13.44-37.66a6.17,6.17,0,0,0-3.83-1q-7.51.88-11.59,6C109.85,156.18,104.16,167.23,99.87,173.37Z" style="fill:#2a5138;fill-rule:evenodd"/><path d="M126,158.59l2.56-3.34Q146.22,130.31,150,107.9q4.66-21.07-.93-48.14-8.79-29-26.09-45Q107.93,1.64,92.64.89,84.71.16,74.16,4.76a8.77,8.77,0,0,1-6.09,1A134.07,134.07,0,0,0,17.31,45.62Q3.19,65.62,1,91.91q-.73,33.68,18.87,66.68,6.6,12.26,11.26,17.81,10.15,12.89,6.16,24.9-2.78,8.48-6.36,13.18,2.48,2.09,9.64-12.15,5.69-10.46,2.3-17.47-3.44-10-3.59-24.55-.25-3.93,3.44-6.62c12.1-8,2.36,15.81,12,25.46q6.2,4.9,7.75,9.57,4.12,18-6.79,26.12-.36,1.6,2.72,0,8.9-7.12,11.59-23.44a88.24,88.24,0,0,0,.1-20.16q-2.66-14.1,7.62-16.39c19.86.58,9.23,18,7.61,36.43A40.07,40.07,0,0,0,87,205.57a14.31,14.31,0,0,0,5.79,7.22q1.17.21.76-1-6.42-10.27-3.58-20.3c2.91-13.58,25.7-33.27,9.4-40.53q-.1-.68,1.39-.4a21.27,21.27,0,0,1,12.75-6q7.46.49,6,10.43a56.42,56.42,0,0,1-3.58,12.68,41,41,0,0,0-2.85,14,43.51,43.51,0,0,0,6.49,23.21q2.63,1.86,2-1.79-5.65-15.52-3.11-27.68A44.51,44.51,0,0,1,126,158.59Z" style="fill:#3b6648;fill-rule:evenodd"/><path d="M86,1.14A48,48,0,0,0,74.16,4.76a8.77,8.77,0,0,1-6.09,1A134.07,134.07,0,0,0,17.31,45.62Q3.19,65.62,1,91.91q-.73,33.68,18.87,66.68,6.6,12.26,11.26,17.81,8.27,10.5,7.15,20.41,2.13-6.66-.26-11.61-3.44-10-3.59-24.55-.25-3.93,3.44-6.62,3.57-2.37,5.49-.75c11.3-6.62,1.78,16.27,11.34,25.86,7.06,5.68,8.78,10.55,8.86,19.6a60.65,60.65,0,0,0,1.55-7,88.27,88.27,0,0,0,.1-20.16q-2.66-14.1,7.62-16.39a22.16,22.16,0,0,1,3,.21,13.52,13.52,0,0,1,1.87-.55c20.63.12,7.91,22.78,7.61,36.43q2.26-9.76,11.36-20.7,8.64-14.56-2.07-19.32-.1-.68,1.39-.4a21.27,21.27,0,0,1,12.75-6,9.24,9.24,0,0,1,1.59.24,21.64,21.64,0,0,1,3.26-.58q7.45.49,6,10.43a56.42,56.42,0,0,1-3.58,12.68,49.09,49.09,0,0,0-2,6.63,45.29,45.29,0,0,1,7.23-15.39l2.56-3.34q17.62-24.94,21.46-47.35,4.66-21.07-.93-48.14-8.8-29-26.09-45Q103.08,2,87.79,1.24,86.91,1.15,86,1.14Z" style="fill:#fff;fill-rule:evenodd"/><path d="M72.35,5.57a9.18,9.18,0,0,1-2.69.31A134,134,0,0,0,19.88,45.31Q5.75,65.3,3.52,91.59q-.73,33.68,18.87,66.68,6.6,12.26,11.26,17.81a44.51,44.51,0,0,1,2.86,4.06,88.38,88.38,0,0,1-2.13-19.49q-.25-3.93,3.44-6.62c19.1-12.67,12.31,17.68,19.4,24.8q6.2,4.9,7.75,9.57.17.72.3,1.42a87.24,87.24,0,0,0-.11-18.21q-2.66-14.1,7.62-16.39a22.16,22.16,0,0,1,3,.21,13.52,13.52,0,0,1,1.87-.55q.65,0,1.26,0,.62-.2,1.3-.35,14.27.08,11.62,15.1a82.66,82.66,0,0,0-3.19,12.69,66.08,66.08,0,0,1,8-11.75q8.64-14.56-2.07-19.32-.1-.68,1.39-.4a21.28,21.28,0,0,1,12.75-6,9.28,9.28,0,0,1,1.59.24,21.7,21.7,0,0,1,3.26-.58l.33,0a22,22,0,0,1,2.24-.34q7.46.49,6,10.43-.41,2.23-.87,4.2l2.53-3.3q17.62-24.94,21.46-47.35,4.66-21.07-.93-48.14-8.8-29-26.09-45Q103.08,2,87.79,1.23l-1.09-.07a51,51,0,0,0-10,3.29A7.78,7.78,0,0,1,72.35,5.57Z" style="fill:#6b9f53;fill-rule:evenodd"/><path d="M72.35,5.57a9.18,9.18,0,0,1-2.69.31A134,134,0,0,0,19.88,45.31Q5.75,65.3,3.52,91.59q-.73,33.68,18.87,66.68,6.6,12.26,11.26,17.81a44.51,44.51,0,0,1,2.86,4.06,88.38,88.38,0,0,1-2.13-19.49q-.25-3.93,3.44-6.62c19.1-12.67,12.31,17.68,19.4,24.8q6.2,4.9,7.75,9.57.17.72.3,1.42a87.24,87.24,0,0,0-.11-18.21q-2.66-14.1,7.62-16.39a22.16,22.16,0,0,1,3,.21,13.52,13.52,0,0,1,1.87-.55q.65,0,1.26,0,.62-.2,1.3-.35,14.27.08,11.62,15.1-.59,1.78-1.09,3.52a120.43,120.43,0,0,0,9.5-11.27q1.41-7.47-5.69-10.63-.1-.68,1.39-.4c3.08-2.94,9-6.28,14.34-5.72l.89-.21c7.46-13.46,12.65-27.47,14.59-38.8q4.66-21.07-.93-48.14-8.8-29-26.09-45A62,62,0,0,0,82.15,2.38q-2.62.85-5.42,2.07A7.78,7.78,0,0,1,72.35,5.57Z" style="fill:#89be5c;fill-rule:evenodd"/><path d="M46.4,56a108.65,108.65,0,0,0,16.82,2.09c11,9.21,4.47,22.38-7.12,23.33C44.9,83.07,32.44,66.16,46.4,56Z" style="fill:#b7d160;fill-rule:evenodd"/><path d="M86.26,28.6q-13.34,17-22.69,25.53C59.14,82.69,86.54,94,105.36,80,124.46,67.53,120.86,25.37,86.26,28.6Z" style="fill:#b7d160;fill-rule:evenodd"/><path d="M46.89,54.8a101.13,101.13,0,0,0,15.64,1.95c10.23,8.56,4.16,20.81-6.62,21.69C45.49,79.93,33.91,64.21,46.89,54.8Z" style="fill:#fff;fill-rule:evenodd"/><path d="M85.59,28.37q-12.94,16.47-22,24.75c-4.29,27.7,22.27,38.63,40.52,25.09C122.63,66.11,119.14,25.23,85.59,28.37Z" style="fill:#fff;fill-rule:evenodd"/><path d="M46.65,54.35A99,99,0,0,0,62,56.26C72,64.63,66,76.62,55.48,77.49,45.28,78.94,33.94,63.56,46.65,54.35Z" style="fill:#201600;fill-rule:evenodd"/><path d="M47,54.76a94.75,94.75,0,0,0,14.66,1.83c9.59,8,3.9,19.5-6.2,20.33C45.66,78.31,34.81,63.58,47,54.76Z" style="fill:#3b6648;fill-rule:evenodd"/><path d="M47,54.76a94.76,94.76,0,0,0,14.66,1.83c3.89,3.26,5.27,7.09,4.85,10.54a13.91,13.91,0,0,1-9.94,5.2c-6.15.88-12.68-4-14.77-10.13A12.23,12.23,0,0,1,47,54.76Z" style="fill:#fff;fill-rule:evenodd"/><circle cx="58.9" cy="62.76" r="2.46" transform="translate(-26.77 54.44) rotate(-41.27)" style="fill:#201600"/><circle cx="59.45" cy="62.31" r="0.9" transform="translate(-26.33 54.69) rotate(-41.27)" style="fill:#fff"/><path d="M65,56.84q.43-1.54-.22-1.53-10.39,2.22-21.65-5-1.49.23.33,1.75.38.7-.6.43-2.76-1-1.56.46Q48.53,58.95,65,56.84Z" style="fill:#201600;fill-rule:evenodd"/><path d="M84.65,27.7Q71.88,44,62.93,52.14c-4.24,27.34,22,38.13,40,24.77C121.21,65,117.77,24.61,84.65,27.7Z" style="fill:#201600;fill-rule:evenodd"/><path d="M84.65,28.52q-12.36,15.73-21,23.65c-4.1,26.46,21.28,36.9,38.71,24C120,64.59,116.7,25.52,84.65,28.52Z" style="fill:#3b6648;fill-rule:evenodd"/><path d="M84.65,28.52q-12.36,15.73-21,23.65c-1.27,8.21.29,14.88,3.58,19.79,9.2,5.29,21.75,4.73,31.92-2.81C107,64,111.26,54,111.27,43.95,107.84,34.47,99.21,27.16,84.65,28.52Z" style="fill:#fff;fill-rule:evenodd"/><circle cx="94.98" cy="47.37" r="4.5" style="fill:#201600"/><circle cx="95.51" cy="46.05" r="1.66" style="fill:#fff"/><path d="M62.25,54.27q-1.57-.6.39-1.94Q80.06,37.2,81.49,18a12.15,12.15,0,0,0,9.9-1.46l.4.66Q79.39,45.77,62.25,54.27Z" style="fill:#201600;fill-rule:evenodd"/><ellipse cx="47.8" cy="20.8" rx="10.59" ry="5.22" transform="translate(-3.55 29.79) rotate(-33.44)" style="fill:#3b6648"/><ellipse cx="65.37" cy="10.44" rx="7.19" ry="5.37" transform="translate(1.11 26.33) rotate(-22.96)" style="fill:#3b6648"/><ellipse cx="58.8" cy="25.9" rx="5.07" ry="3.78" transform="translate(-5.44 24.99) rotate(-22.96)" style="fill:#3b6648"/><path d="M146.51,38.38c1.73,6-.2,11.74-4.3,12.82s-8.83-2.92-10.55-8.92.2-11.74,4.3-12.82S144.78,32.38,146.51,38.38Z" style="fill:#3b6648;fill-rule:evenodd"/><path d="M137.84,65.61a5.77,5.77,0,1,0-6-5.76A5.89,5.89,0,0,0,137.84,65.61Z" style="fill:#3b6648;fill-rule:evenodd"/><path d="M130.92,71.84c-8.83-5.73-17.25,1.51-18.28,10.93-2.41,15.59,19.39,15.83,23,4.57Q138.72,76.8,130.92,71.84Z" style="fill:#3b6648;fill-rule:evenodd"/><ellipse cx="125.72" cy="100.61" rx="2.42" ry="2.48" style="fill:#3b6648"/><ellipse cx="137.24" cy="95.61" rx="3.34" ry="2.85" style="fill:#3b6648"/><ellipse cx="9.27" cy="125.01" rx="8.08" ry="11.26" transform="translate(-16.11 2.25) rotate(-7.44)" style="fill:#3b6648"/><ellipse cx="11.06" cy="100.02" rx="5.03" ry="4.5" style="fill:#3b6648"/><path d="M50.79,136.77Q53.37,123.13,44,122.6q-9.13,0-11.79,9.27-1.46,10.44,5.69,11.92Q48.81,144.36,50.79,136.77Z" style="fill:#3b6648;fill-rule:evenodd"/><path d="M139,145.39q7.63-9.53.55-13.82-7.1-3.76-13,2.33-5.44,7.5-.5,11.6Q134.31,150.47,139,145.39Z" style="fill:#3b6648;fill-rule:evenodd"/><path d="M55.82,143.39c12.25,4.21,2.15-18.43-1.34-5Q53.63,141.73,55.82,143.39Z" style="fill:#3b6648;fill-rule:evenodd"/><ellipse cx="119.86" cy="135.58" rx="2.25" ry="2.85" style="fill:#3b6648"/><ellipse cx="137.87" cy="125.05" rx="1.85" ry="1.72" style="fill:#3b6648"/><ellipse cx="126.74" cy="29.23" rx="1.89" ry="3.15" transform="translate(2.76 68.55) rotate(-30.58)" style="fill:#3b6648"/><path d="M44.92,16.44a17.17,17.17,0,0,1,7.24-2.87A3.86,3.86,0,0,1,55.47,15c1.59,2.41-1.08,7-6,10.19a17.19,17.19,0,0,1-7.24,2.87A3.85,3.85,0,0,1,39,26.63C37.38,24.22,40,19.66,44.92,16.44Z" style="fill:#fff;fill-rule:evenodd"/><path d="M63.27,5.5a9.38,9.38,0,0,1,2.55-.68c2.28.05,4.23,1.08,5,2.87,1.16,2.73-.87,6.2-4.53,7.75a9.32,9.32,0,0,1-2.55.68c-2.29-.05-4.23-1.08-5-2.87C57.59,10.52,59.62,7.05,63.27,5.5Z" style="fill:#fff;fill-rule:evenodd"/><path d="M57.33,22.42A6.63,6.63,0,0,1,59,22a3.67,3.67,0,0,1,3.35,2c.81,1.92-.61,4.37-3.19,5.46a6.68,6.68,0,0,1-1.63.46,3.67,3.67,0,0,1-3.35-2C53.32,26,54.75,23.51,57.33,22.42Z" style="fill:#fff;fill-rule:evenodd"/><path d="M140.52,51.36c-3.63-.21-7.37-3.9-8.86-9.09-1.73-6,.2-11.74,4.3-12.82l.52-.11c3.63.21,7.37,3.9,8.86,9.09,1.73,6-.2,11.74-4.3,12.82Z" style="fill:#fff;fill-rule:evenodd"/><path d="M137.55,65.61a5.74,5.74,0,1,1,5.11-5.7A5.87,5.87,0,0,1,137.55,65.61Z" style="fill:#fff;fill-rule:evenodd"/><path d="M123.52,69.86c-5.69.62-10.15,6.21-10.88,12.9-1.32,8.55,4.64,12.48,10.89,12.43,4.77-.41,9.46-3.11,11-7.81q3-10.53-4.77-15.5A11.64,11.64,0,0,0,123.52,69.86Z" style="fill:#fff;fill-rule:evenodd"/><path d="M125.24,103a2.5,2.5,0,0,1-.22-4.81,2.5,2.5,0,0,1,.22,4.81Z" style="fill:#fff;fill-rule:evenodd"/><path d="M136.84,98.44a3.06,3.06,0,0,1-2.95-2.83,3,3,0,0,1,2.57-2.77,3.06,3.06,0,0,1,2.95,2.83A3,3,0,0,1,136.84,98.44Z" style="fill:#fff;fill-rule:evenodd"/><path d="M9.66,136.22c-4-.21-7.66-4.49-8.4-10.16-.8-6.12,2.08-11.55,6.45-12.19,4,.21,7.66,4.49,8.4,10.16C16.91,130.14,14,135.57,9.66,136.22Z" style="fill:#fff;fill-rule:evenodd"/><path d="M10.75,104.51A4.75,4.75,0,0,1,6,100a4.68,4.68,0,0,1,4.18-4.44,4.75,4.75,0,0,1,4.72,4.49A4.68,4.68,0,0,1,10.75,104.51Z" style="fill:#fff;fill-rule:evenodd"/><path d="M42.59,122.65q-8,.68-10.41,9.21-1.46,10.44,5.69,11.92,1.07.05,2.06,0,8-.6,9.69-7,2.58-13.64-6.82-14.17Z" style="fill:#fff;fill-rule:evenodd"/><path d="M133.29,130.2a11.2,11.2,0,0,0-6.73,3.71q-5.44,7.5-.5,11.6a14.81,14.81,0,0,0,7.08,2.44,7.48,7.48,0,0,0,4.68-2.51q7.63-9.53.55-13.82A11.28,11.28,0,0,0,133.29,130.2Z" style="fill:#fff;fill-rule:evenodd"/><path d="M55.82,143.39a9.15,9.15,0,0,0,2.34.52c4.44-.83,1.85-8.83-1.17-9.68-.94.38-1.85,1.63-2.51,4.19Q53.63,141.73,55.82,143.39Z" style="fill:#fff;fill-rule:evenodd"/><path d="M119.35,138.35a2.79,2.79,0,0,1-1.75-2.78,2.85,2.85,0,0,1,1.58-2.72,2.79,2.79,0,0,1,1.75,2.78A2.85,2.85,0,0,1,119.35,138.35Z" style="fill:#fff;fill-rule:evenodd"/><path d="M137.37,126.71A1.75,1.75,0,0,1,136,125a1.73,1.73,0,0,1,1.18-1.6,1.75,1.75,0,0,1,1.36,1.66A1.73,1.73,0,0,1,137.37,126.71Z" style="fill:#fff;fill-rule:evenodd"/><path d="M125.14,26.52h0a4,4,0,0,1,2,1.82c.88,1.5.87,3.14,0,3.67h0a4,4,0,0,1-2-1.82C124.23,28.69,124.24,27.05,125.14,26.52Z" style="fill:#fff;fill-rule:evenodd"/><path d="M54.76,14.29a2.72,2.72,0,0,1,.71.73c1.59,2.41-1.08,7-6,10.19a17.19,17.19,0,0,1-7.24,2.87,4.49,4.49,0,0,1-2.74-.83c-1.45-2.43,1.21-6.91,6-10.09C48.87,15,52.37,13.95,54.76,14.29Z" style="fill:#b7d160;fill-rule:evenodd"/><path d="M68.92,5.62a4.34,4.34,0,0,1,1.9,2.07c1.16,2.73-.87,6.2-4.53,7.75a9.32,9.32,0,0,1-2.55.68,6,6,0,0,1-4-1.43,4.06,4.06,0,0,1-.4-.73c-1.16-2.73.87-6.2,4.53-7.75A8.65,8.65,0,0,1,68.92,5.62Z" style="fill:#b7d160;fill-rule:evenodd"/><path d="M61.2,22.66A3,3,0,0,1,62.31,24c.81,1.92-.61,4.37-3.19,5.46a6.68,6.68,0,0,1-1.63.46A4.27,4.27,0,0,1,55,29a2.87,2.87,0,0,1-.21-.4c-.81-1.92.62-4.37,3.19-5.46A6.21,6.21,0,0,1,61.2,22.66Z" style="fill:#b7d160;fill-rule:evenodd"/><path d="M140.52,51.36a8.38,8.38,0,0,1-5.43-2.88,15.6,15.6,0,0,1-2.81-5.5c-1.73-6,.2-11.74,4.3-12.82a5.59,5.59,0,0,1,2.62,0c2.65,1.37,5,4.42,6.14,8.3,1.73,6-.2,11.74-4.3,12.82Z" style="fill:#86bc5d;fill-rule:evenodd"/><path d="M140.52,51.36a8.38,8.38,0,0,1-5.43-2.88,15.6,15.6,0,0,1-2.81-5.5,13.28,13.28,0,0,1,.52-9.58,111.63,111.63,0,0,1,8.46,17.78l-.22.06Z" style="fill:#9dc256;fill-rule:evenodd"/><path d="M137.55,65.61a6.08,6.08,0,0,1-4-1.71,5.58,5.58,0,0,1-1.1-3.33,5.88,5.88,0,0,1,6-5.76,6.26,6.26,0,0,1,1.21.12,5.72,5.72,0,0,1,3,5A5.84,5.84,0,0,1,137.55,65.61Z" style="fill:#9dc256;fill-rule:evenodd"/><path d="M115.07,92a11.61,11.61,0,0,0,8.46,3.16c4.77-.41,9.46-3.11,11-7.81q3-10.53-4.77-15.5a14,14,0,0,0-1.8-1c-7.41-2-13.79,4.46-14.68,12.58C112.69,87.17,113.48,90,115.07,92Z" style="fill:#9dc256;fill-rule:evenodd"/><path d="M115.07,92a11.61,11.61,0,0,0,8.46,3.16,15,15,0,0,0,4-.9,116,116,0,0,0-.61-23.63c-7-1.2-12.8,5.07-13.64,12.81C112.69,87.17,113.48,90,115.07,92Z" style="fill:#b7d160;fill-rule:evenodd"/><path d="M125.24,103a2.38,2.38,0,0,1-1-.45,2.52,2.52,0,0,1-.34-1.27,2.46,2.46,0,0,1,2.27-2.48,2.51,2.51,0,0,1,.77,1.82A2.48,2.48,0,0,1,125.24,103Z" style="fill:#b7d160;fill-rule:evenodd"/><path d="M136.84,98.44a3.6,3.6,0,0,1-1.94-.79,2.51,2.51,0,0,1-.38-1.32,3.13,3.13,0,0,1,3.34-2.85l.37,0a2.69,2.69,0,0,1,1.18,2.17A3,3,0,0,1,136.84,98.44Z" style="fill:#9dc256;fill-rule:evenodd"/><path d="M9.66,136.22a7.48,7.48,0,0,1-4.95-2.49,14.09,14.09,0,0,1-2.83-7c-.81-6.17,2.13-11.63,6.55-12.21a6,6,0,0,1,2,.08c2.84,1.51,5.11,5,5.68,9.38C16.91,130.14,14,135.57,9.66,136.22Z" style="fill:#b7d160;fill-rule:evenodd"/><path d="M10.75,104.51a5.28,5.28,0,0,1-3.32-1.38,4.14,4.14,0,0,1-.77-2.4,4.79,4.79,0,0,1,5-4.5,5.62,5.62,0,0,1,1,.08,4.4,4.4,0,0,1,2.27,3.76A4.68,4.68,0,0,1,10.75,104.51Z" style="fill:#b7d160;fill-rule:evenodd"/><path d="M34.19,141.93a7.2,7.2,0,0,0,3.69,1.85q1.07.05,2.06,0,8-.6,9.69-7,2-10.54-3.17-13.25a10.65,10.65,0,0,0-1.86-.26q-9.13,0-11.79,9.27Q31.92,138.9,34.19,141.93Z" style="fill:#b7d160;fill-rule:evenodd"/><path d="M125.49,145q.27.27.57.52a14.81,14.81,0,0,0,7.08,2.44,7.48,7.48,0,0,0,4.68-2.51q7.63-9.53.55-13.82-.41-.22-.82-.4-5.58-1.55-10.36,3.39Q122.51,141.05,125.49,145Z" style="fill:#86bc5d;fill-rule:evenodd"/><path d="M125.49,145q.27.27.57.52a20.83,20.83,0,0,0,3.3,1.64,137.28,137.28,0,0,0,8.51-15.77l-.33-.16q-5.58-1.55-10.36,3.39Q122.51,141.05,125.49,145Z" style="fill:#9dc256;fill-rule:evenodd"/><path d="M55.82,143.39a9.15,9.15,0,0,0,2.34.52c3.9-.73,2.37-7-.11-9.08-1.1.14-2.19,1.35-3,4.31a4.78,4.78,0,0,0,.41,4Z" style="fill:#b7d160;fill-rule:evenodd"/><path d="M119.35,138.35a2,2,0,0,1-.67-.35,3.35,3.35,0,0,1-.46-1.72,2.72,2.72,0,0,1,1.93-2.82,3.2,3.2,0,0,1,.79,2.16A2.85,2.85,0,0,1,119.35,138.35Z" style="fill:#9dc256;fill-rule:evenodd"/><path d="M137.37,126.71a1.9,1.9,0,0,1-.58-.26,1.61,1.61,0,0,1-.15-.69,1.76,1.76,0,0,1,1.54-1.7,1.63,1.63,0,0,1,.38,1A1.73,1.73,0,0,1,137.37,126.71Z" style="fill:#9dc256;fill-rule:evenodd"/><path d="M126.17,27.09a4.83,4.83,0,0,1,1,1.24c.88,1.5.87,3.14,0,3.67h0a3.23,3.23,0,0,1-1.16-.72q-.13-.18-.25-.38c-.88-1.5-.87-3.14,0-3.67A1.18,1.18,0,0,1,126.17,27.09Z" style="fill:#abcb56;fill-rule:evenodd"/><path d="M29.46,86.7c16.37-13.48,30.57,1,35.11,17.68q.33,2.49-2.88,1.34C54.29,94.19,50.9,75.22,29.46,86.7Z" style="fill:#fff;fill-rule:evenodd"/><path d="M28.46,80.72q-.92,0-.6,1A14.53,14.53,0,0,1,29,87.21q.17.53.5.23C44.2,73.67,59.11,87.31,64,104.79q.73,1.23,1.13-.07c-3.74-16.56-18.32-32-34.6-19.34q-.78,1.11-.83-.23A7.07,7.07,0,0,0,28.46,80.72Z" style="fill:#201600;fill-rule:evenodd"/></g></g></svg>